<svg width="301" height="258" viewBox="0 0 301 258" fill="none" xmlns="http://www.w3.org/2000/svg">
	<g filter="url(#filter0_d_890_389)">
		<rect x="40" y="29" width="221" height="178" rx="16" fill="white" />
		<rect x="52" y="157" width="101" height="36" rx="18" fill="#8F52FF" />
		<path d="M85.1719 172.993C85.1188 172.522 84.9001 172.158 84.5156 171.899C84.1312 171.637 83.6473 171.506 83.0639 171.506C82.6463 171.506 82.285 171.573 81.9801 171.705C81.6752 171.835 81.4382 172.013 81.2692 172.242C81.1035 172.468 81.0206 172.724 81.0206 173.013C81.0206 173.255 81.0769 173.464 81.1896 173.639C81.3056 173.815 81.4564 173.962 81.642 174.082C81.831 174.198 82.0331 174.295 82.2486 174.375C82.464 174.451 82.6712 174.514 82.87 174.564L83.8643 174.822C84.1892 174.902 84.5223 175.01 84.8636 175.146C85.205 175.281 85.5215 175.46 85.8132 175.683C86.1049 175.905 86.3402 176.18 86.5192 176.508C86.7015 176.836 86.7926 177.229 86.7926 177.686C86.7926 178.263 86.6435 178.775 86.3452 179.222C86.0502 179.67 85.621 180.023 85.0575 180.281C84.4974 180.54 83.8196 180.669 83.0241 180.669C82.2618 180.669 81.6023 180.548 81.0455 180.306C80.4886 180.064 80.0528 179.721 79.7379 179.277C79.4231 178.83 79.2491 178.299 79.2159 177.686H80.7571C80.7869 178.054 80.9063 178.361 81.1151 178.606C81.3272 178.848 81.5973 179.028 81.9254 179.148C82.2569 179.264 82.6198 179.322 83.0142 179.322C83.4484 179.322 83.8345 179.254 84.1726 179.118C84.514 178.979 84.7824 178.786 84.978 178.541C85.1735 178.293 85.2713 178.003 85.2713 177.671C85.2713 177.37 85.1851 177.123 85.0128 176.93C84.8438 176.738 84.6134 176.579 84.3217 176.453C84.0334 176.327 83.7069 176.216 83.3423 176.12L82.1392 175.792C81.3239 175.57 80.6776 175.243 80.2003 174.812C79.7263 174.382 79.4893 173.812 79.4893 173.102C79.4893 172.516 79.6484 172.004 79.9666 171.566C80.2848 171.129 80.7157 170.789 81.2592 170.547C81.8028 170.302 82.416 170.179 83.0987 170.179C83.7881 170.179 84.3963 170.3 84.9233 170.542C85.4536 170.784 85.8712 171.117 86.1761 171.541C86.4811 171.962 86.6402 172.446 86.6534 172.993H85.1719ZM93.3464 177.333V172.864H94.8379V180.5H93.3762V179.178H93.2967C93.121 179.585 92.8393 179.925 92.4515 180.197C92.0671 180.465 91.5881 180.599 91.0147 180.599C90.5242 180.599 90.09 180.492 89.7122 180.276C89.3377 180.058 89.0427 179.734 88.8272 179.307C88.6151 178.879 88.5091 178.351 88.5091 177.721V172.864H89.9956V177.542C89.9956 178.062 90.1397 178.477 90.4281 178.785C90.7164 179.093 91.091 179.247 91.5517 179.247C91.8301 179.247 92.1068 179.178 92.3819 179.038C92.6603 178.899 92.8907 178.689 93.073 178.407C93.2586 178.125 93.3497 177.767 93.3464 177.333ZM96.9545 180.5V170.318H98.4411V174.102H98.5305C98.6167 173.942 98.741 173.759 98.9034 173.55C99.0658 173.341 99.2912 173.159 99.5795 173.003C99.8679 172.844 100.249 172.764 100.723 172.764C101.339 172.764 101.89 172.92 102.374 173.232C102.857 173.543 103.237 173.992 103.512 174.579C103.79 175.165 103.93 175.871 103.93 176.697C103.93 177.522 103.792 178.23 103.517 178.82C103.242 179.406 102.864 179.859 102.384 180.177C101.903 180.492 101.354 180.649 100.738 180.649C100.274 180.649 99.8944 180.571 99.5994 180.415C99.3078 180.26 99.0791 180.077 98.9134 179.869C98.7476 179.66 98.62 179.474 98.5305 179.312H98.4062V180.5H96.9545ZM98.4112 176.682C98.4112 177.219 98.4891 177.689 98.6449 178.094C98.8007 178.498 99.026 178.815 99.321 179.043C99.616 179.269 99.9773 179.381 100.405 179.381C100.849 179.381 101.22 179.264 101.518 179.028C101.817 178.79 102.042 178.467 102.195 178.059C102.35 177.651 102.428 177.192 102.428 176.682C102.428 176.178 102.352 175.726 102.2 175.325C102.05 174.924 101.825 174.607 101.523 174.375C101.225 174.143 100.852 174.027 100.405 174.027C99.974 174.027 99.6094 174.138 99.3111 174.36C99.0161 174.582 98.7924 174.892 98.6399 175.29C98.4875 175.687 98.4112 176.152 98.4112 176.682ZM105.599 180.5V172.864H107.026V174.107H107.12C107.279 173.686 107.539 173.357 107.901 173.122C108.262 172.884 108.695 172.764 109.198 172.764C109.709 172.764 110.136 172.884 110.481 173.122C110.829 173.361 111.086 173.689 111.252 174.107H111.331C111.513 173.699 111.803 173.374 112.201 173.132C112.599 172.887 113.073 172.764 113.623 172.764C114.316 172.764 114.881 172.981 115.318 173.415C115.759 173.85 115.98 174.504 115.98 175.379V180.5H114.493V175.518C114.493 175.001 114.352 174.627 114.07 174.395C113.789 174.163 113.452 174.047 113.061 174.047C112.577 174.047 112.201 174.196 111.933 174.494C111.664 174.789 111.53 175.169 111.53 175.633V180.5H110.048V175.424C110.048 175.01 109.919 174.677 109.661 174.425C109.402 174.173 109.066 174.047 108.651 174.047C108.37 174.047 108.11 174.121 107.871 174.271C107.636 174.416 107.445 174.62 107.299 174.882C107.157 175.144 107.085 175.447 107.085 175.792V180.5H105.599ZM117.972 180.5V172.864H119.458V180.5H117.972ZM118.723 171.685C118.464 171.685 118.242 171.599 118.056 171.427C117.874 171.251 117.783 171.042 117.783 170.8C117.783 170.555 117.874 170.346 118.056 170.174C118.242 169.998 118.464 169.911 118.723 169.911C118.981 169.911 119.202 169.998 119.384 170.174C119.569 170.346 119.662 170.555 119.662 170.8C119.662 171.042 119.569 171.251 119.384 171.427C119.202 171.599 118.981 171.685 118.723 171.685ZM125.023 172.864V174.057H120.852V172.864H125.023ZM121.97 171.034H123.457V178.258C123.457 178.546 123.5 178.763 123.586 178.909C123.672 179.052 123.783 179.149 123.919 179.202C124.058 179.252 124.209 179.277 124.372 179.277C124.491 179.277 124.595 179.269 124.685 179.252C124.774 179.236 124.844 179.222 124.894 179.212L125.162 180.44C125.076 180.473 124.953 180.507 124.794 180.54C124.635 180.576 124.436 180.596 124.198 180.599C123.807 180.606 123.442 180.536 123.104 180.391C122.766 180.245 122.492 180.019 122.284 179.714C122.075 179.41 121.97 179.027 121.97 178.566V171.034Z" fill="white" />
		<rect x="52" y="82" width="197" height="9" rx="4.5" fill="#D9D9D9" />
		<rect x="52" y="97" width="197" height="9" rx="4.5" fill="#D9D9D9" />
		<rect x="52" y="112" width="197" height="9" rx="4.5" fill="#D9D9D9" />
		<rect x="52" y="127" width="81" height="9" rx="4.5" fill="#D9D9D9" />
		<path d="M57.256 48.328L59.884 57.904C59.956 58.168 59.992 58.576 59.992 59.128C59.992 59.272 60.064 59.344 60.208 59.344C60.352 59.344 60.424 59.272 60.424 59.128C60.424 58.576 60.46 58.168 60.532 57.904L63.16 48.328H67.408V61H64.96V51.514C64.96 51.25 64.984 51.01 65.032 50.794C65.08 50.578 65.158 50.314 65.266 50.002C65.278 49.978 65.284 49.942 65.284 49.894C65.284 49.774 65.224 49.708 65.104 49.696H65.068C64.984 49.696 64.924 49.75 64.888 49.858L61.72 61H58.696L55.528 49.858C55.492 49.75 55.432 49.696 55.348 49.696C55.156 49.696 55.09 49.798 55.15 50.002C55.258 50.314 55.336 50.578 55.384 50.794C55.432 51.01 55.456 51.25 55.456 51.514V61H53.008V48.328H57.256ZM72.846 57.634C72.942 57.922 72.99 58.282 72.99 58.714C72.99 58.918 73.062 59.02 73.206 59.02C73.35 59.02 73.422 58.918 73.422 58.714C73.422 58.318 73.476 57.958 73.584 57.634L75.618 51.496H78.066L74.034 62.098C73.71 62.95 73.302 63.556 72.81 63.916C72.318 64.276 71.658 64.456 70.83 64.456H69.102V62.44H69.894C70.422 62.44 70.788 62.428 70.992 62.404C71.208 62.38 71.37 62.32 71.478 62.224C71.598 62.128 71.7 61.954 71.784 61.702L71.982 61.126L68.274 51.496H70.722L72.846 57.634ZM86.8505 50.488V53.656H92.1785V55.672H86.8505V58.84L93.3305 58.84V61L84.4025 61V48.328L93.3305 48.328V50.488L86.8505 50.488ZM94.4789 51.496H97.1429L98.7269 54.07C98.8829 54.298 98.9729 54.58 98.9969 54.916C99.0089 55.012 99.0269 55.084 99.0509 55.132C99.0869 55.18 99.1469 55.204 99.2309 55.204C99.3149 55.204 99.3689 55.18 99.3929 55.132C99.4289 55.084 99.4529 55.012 99.4649 54.916C99.4889 54.58 99.5789 54.298 99.7349 54.07L101.319 51.496H103.983L100.887 56.032L104.271 61H101.607L99.7349 57.976C99.5789 57.7 99.4889 57.418 99.4649 57.13C99.4649 56.938 99.3869 56.842 99.2309 56.842C99.0749 56.842 98.9969 56.938 98.9969 57.13C98.9729 57.418 98.8829 57.7 98.7269 57.976L96.8549 61H94.1909L97.5749 56.032L94.4789 51.496ZM107.589 51.856C107.589 52.18 107.505 52.51 107.337 52.846C107.325 52.882 107.301 52.936 107.265 53.008C107.241 53.08 107.229 53.14 107.229 53.188C107.229 53.248 107.259 53.296 107.319 53.332L107.391 53.35C107.475 53.35 107.535 53.314 107.571 53.242C107.607 53.17 107.631 53.128 107.643 53.116C107.955 52.576 108.357 52.15 108.849 51.838C109.353 51.514 109.953 51.352 110.649 51.352C111.453 51.352 112.167 51.568 112.791 52C113.427 52.432 113.919 53.02 114.267 53.764C114.615 54.508 114.789 55.336 114.789 56.248C114.789 57.16 114.615 57.988 114.267 58.732C113.919 59.476 113.427 60.064 112.791 60.496C112.167 60.928 111.453 61.144 110.649 61.144C109.965 61.144 109.365 60.988 108.849 60.676C108.345 60.352 107.943 59.914 107.643 59.362C107.643 59.35 107.619 59.308 107.571 59.236C107.535 59.164 107.469 59.146 107.373 59.182C107.289 59.218 107.247 59.272 107.247 59.344C107.247 59.428 107.277 59.518 107.337 59.614C107.505 59.95 107.589 60.274 107.589 60.586V64.456H105.285V51.496H107.589V51.856ZM110.109 59.056C110.877 59.056 111.465 58.792 111.873 58.264C112.281 57.724 112.485 57.052 112.485 56.248C112.485 55.444 112.281 54.778 111.873 54.25C111.465 53.71 110.877 53.44 110.109 53.44C109.617 53.44 109.179 53.566 108.795 53.818C108.411 54.07 108.111 54.412 107.895 54.844C107.691 55.276 107.589 55.744 107.589 56.248C107.589 56.752 107.691 57.22 107.895 57.652C108.111 58.084 108.411 58.426 108.795 58.678C109.179 58.93 109.617 59.056 110.109 59.056ZM125.017 56.122C125.017 56.314 124.999 56.548 124.963 56.824H118.051C118.135 57.544 118.399 58.108 118.843 58.516C119.287 58.924 119.869 59.128 120.589 59.128C121.561 59.128 122.203 58.648 122.515 57.688H124.855C124.639 58.732 124.171 59.572 123.451 60.208C122.743 60.832 121.783 61.144 120.571 61.144C119.575 61.144 118.717 60.934 117.997 60.514C117.277 60.094 116.731 59.518 116.359 58.786C115.987 58.042 115.801 57.196 115.801 56.248C115.801 55.264 115.993 54.406 116.377 53.674C116.761 52.93 117.307 52.36 118.015 51.964C118.735 51.556 119.575 51.352 120.535 51.352C121.315 51.352 122.041 51.52 122.713 51.856C123.397 52.18 123.949 52.702 124.369 53.422C124.801 54.13 125.017 55.03 125.017 56.122ZM122.713 55.24C122.665 54.64 122.461 54.154 122.101 53.782C121.741 53.41 121.243 53.224 120.607 53.224C119.239 53.224 118.417 53.896 118.141 55.24H122.713ZM128.31 53.53C128.358 53.53 128.4 53.512 128.436 53.476C128.472 53.428 128.496 53.386 128.508 53.35C128.724 52.858 128.946 52.474 129.174 52.198C129.402 51.922 129.732 51.712 130.164 51.568C130.596 51.424 131.184 51.352 131.928 51.352V53.692C131.784 53.68 131.586 53.674 131.334 53.674C130.266 53.674 129.522 53.926 129.102 54.43C128.682 54.922 128.472 55.738 128.472 56.878V61H126.168V51.496H128.472V52.018C128.472 52.39 128.382 52.756 128.202 53.116C128.154 53.212 128.13 53.29 128.13 53.35C128.13 53.446 128.184 53.506 128.292 53.53H128.31ZM133.235 48.04H135.539V50.344H133.235V48.04ZM133.235 51.496H135.539V61H133.235V51.496ZM145.918 56.122C145.918 56.314 145.9 56.548 145.864 56.824L138.952 56.824C139.036 57.544 139.3 58.108 139.744 58.516C140.188 58.924 140.77 59.128 141.49 59.128C142.462 59.128 143.104 58.648 143.416 57.688H145.756C145.54 58.732 145.072 59.572 144.352 60.208C143.644 60.832 142.684 61.144 141.472 61.144C140.476 61.144 139.618 60.934 138.898 60.514C138.178 60.094 137.632 59.518 137.26 58.786C136.888 58.042 136.702 57.196 136.702 56.248C136.702 55.264 136.894 54.406 137.278 53.674C137.662 52.93 138.208 52.36 138.916 51.964C139.636 51.556 140.476 51.352 141.436 51.352C142.216 51.352 142.942 51.52 143.614 51.856C144.298 52.18 144.85 52.702 145.27 53.422C145.702 54.13 145.918 55.03 145.918 56.122ZM143.614 55.24C143.566 54.64 143.362 54.154 143.002 53.782C142.642 53.41 142.144 53.224 141.508 53.224C140.14 53.224 139.318 53.896 139.042 55.24L143.614 55.24ZM152.577 51.352C153.633 51.352 154.467 51.694 155.079 52.378C155.691 53.062 155.997 54.064 155.997 55.384V61H153.693V56.176C153.693 55.144 153.555 54.43 153.279 54.034C153.003 53.638 152.553 53.44 151.929 53.44C151.485 53.44 151.065 53.596 150.669 53.908C150.285 54.22 149.973 54.658 149.733 55.222C149.493 55.786 149.373 56.422 149.373 57.13V61H147.069V51.496H149.373V52.09C149.373 52.366 149.349 52.6 149.301 52.792C149.253 52.984 149.181 53.182 149.085 53.386C149.025 53.53 148.995 53.626 148.995 53.674C148.995 53.782 149.043 53.842 149.139 53.854H149.193C149.277 53.854 149.349 53.782 149.409 53.638C149.673 53.05 150.081 52.522 150.633 52.054C151.185 51.586 151.833 51.352 152.577 51.352ZM157.145 56.248C157.145 55.312 157.337 54.472 157.721 53.728C158.117 52.984 158.681 52.402 159.413 51.982C160.145 51.562 160.991 51.352 161.951 51.352C162.803 51.352 163.553 51.526 164.201 51.874C164.849 52.222 165.353 52.684 165.713 53.26C166.085 53.824 166.301 54.436 166.361 55.096H164.093C164.021 54.616 163.799 54.22 163.427 53.908C163.055 53.596 162.563 53.44 161.951 53.44C161.171 53.44 160.559 53.698 160.115 54.214C159.671 54.73 159.449 55.408 159.449 56.248C159.449 57.088 159.671 57.766 160.115 58.282C160.559 58.798 161.171 59.056 161.951 59.056C162.563 59.056 163.055 58.9 163.427 58.588C163.799 58.276 164.021 57.88 164.093 57.4H166.361C166.301 58.06 166.085 58.678 165.713 59.254C165.353 59.818 164.849 60.274 164.201 60.622C163.565 60.97 162.815 61.144 161.951 61.144C161.003 61.144 160.163 60.934 159.431 60.514C158.711 60.094 158.147 59.512 157.739 58.768C157.343 58.024 157.145 57.184 157.145 56.248ZM176.503 56.122C176.503 56.314 176.485 56.548 176.449 56.824H169.537C169.621 57.544 169.885 58.108 170.329 58.516C170.773 58.924 171.355 59.128 172.075 59.128C173.047 59.128 173.689 58.648 174.001 57.688H176.341C176.125 58.732 175.657 59.572 174.937 60.208C174.229 60.832 173.269 61.144 172.057 61.144C171.061 61.144 170.203 60.934 169.483 60.514C168.763 60.094 168.217 59.518 167.845 58.786C167.473 58.042 167.287 57.196 167.287 56.248C167.287 55.264 167.479 54.406 167.863 53.674C168.247 52.93 168.793 52.36 169.501 51.964C170.221 51.556 171.061 51.352 172.021 51.352C172.801 51.352 173.527 51.52 174.199 51.856C174.883 52.18 175.435 52.702 175.855 53.422C176.287 54.13 176.503 55.03 176.503 56.122ZM174.199 55.24C174.151 54.64 173.947 54.154 173.587 53.782C173.227 53.41 172.729 53.224 172.093 53.224C170.725 53.224 169.903 53.896 169.627 55.24H174.199Z" fill="#101828" />
	</g>
	<defs>
		<filter id="filter0_d_890_389" x="0" y="0" width="301" height="258" filterUnits="userSpaceOnUse" color-interpolation-filters="sRGB">
			<feFlood flood-opacity="0" result="BackgroundImageFix" />
			<feColorMatrix in="SourceAlpha" type="matrix" values="0 0 0 0 0 0 0 0 0 0 0 0 0 0 0 0 0 0 127 0" result="hardAlpha" />
			<feOffset dy="11" />
			<feGaussianBlur stdDeviation="20" />
			<feComposite in2="hardAlpha" operator="out" />
			<feColorMatrix type="matrix" values="0 0 0 0 0.560784 0 0 0 0 0.321569 0 0 0 0 1 0 0 0 0.25 0" />
			<feBlend mode="normal" in2="BackgroundImageFix" result="effect1_dropShadow_890_389" />
			<feBlend mode="normal" in="SourceGraphic" in2="effect1_dropShadow_890_389" result="shape" />
		</filter>
	</defs>
</svg>
