<svg width="379" height="208" viewBox="0 0 379 208" fill="none" xmlns="http://www.w3.org/2000/svg">
	<g filter="url(#filter0_d_890_382)">
		<g clip-path="url(#clip0_890_382)">
			<rect x="40" y="29" width="299" height="128" rx="24" fill="#8F52FF" />
			<circle opacity="0.1" cx="288" cy="163" r="82" fill="white" />
			<path opacity="0.6" d="M62.016 72.552V79.944H66.144V81H60.768V72.552H62.016ZM69.8873 74.76C70.4873 74.76 71.0113 74.9 71.4593 75.18C71.9153 75.46 72.2633 75.844 72.5033 76.332C72.7433 76.812 72.8633 77.344 72.8633 77.928C72.8633 78.512 72.7433 79.048 72.5033 79.536C72.2633 80.016 71.9153 80.396 71.4593 80.676C71.0113 80.956 70.4873 81.096 69.8873 81.096C69.2873 81.096 68.7593 80.956 68.3033 80.676C67.8553 80.396 67.5113 80.016 67.2713 79.536C67.0313 79.048 66.9113 78.512 66.9113 77.928C66.9113 77.344 67.0313 76.812 67.2713 76.332C67.5113 75.844 67.8553 75.46 68.3033 75.18C68.7593 74.9 69.2873 74.76 69.8873 74.76ZM69.8873 80.04C70.4473 80.04 70.8913 79.84 71.2193 79.44C71.5473 79.032 71.7113 78.528 71.7113 77.928C71.7113 77.328 71.5473 76.828 71.2193 76.428C70.8913 76.02 70.4473 75.816 69.8873 75.816C69.3273 75.816 68.8833 76.02 68.5553 76.428C68.2273 76.828 68.0633 77.328 68.0633 77.928C68.0633 78.528 68.2273 79.032 68.5553 79.44C68.8833 79.84 69.3273 80.04 69.8873 80.04ZM74.8907 76.284C74.9307 76.284 74.9667 76.248 74.9987 76.176C75.1427 75.816 75.2907 75.54 75.4427 75.348C75.5947 75.148 75.8107 75 76.0907 74.904C76.3787 74.808 76.7747 74.76 77.2787 74.76V75.936C77.1827 75.928 77.0507 75.924 76.8827 75.924C76.1707 75.924 75.6747 76.092 75.3947 76.428C75.1147 76.756 74.9747 77.3 74.9747 78.06V81H73.8227V74.856H74.9747V75.264C74.9747 75.504 74.9307 75.772 74.8427 76.068C74.8267 76.132 74.8187 76.176 74.8187 76.2C74.8187 76.248 74.8387 76.276 74.8787 76.284H74.8907ZM83.2299 77.844C83.2299 77.988 83.2179 78.128 83.1939 78.264H78.6099C78.6499 78.776 78.8379 79.2 79.1739 79.536C79.5099 79.872 79.9459 80.04 80.4819 80.04C80.8819 80.04 81.1939 79.948 81.4179 79.764C81.6499 79.572 81.8219 79.292 81.9339 78.924H83.1219C82.9859 79.548 82.6899 80.068 82.2339 80.484C81.7859 80.892 81.1939 81.096 80.4579 81.096C79.8339 81.096 79.2939 80.956 78.8379 80.676C78.3899 80.396 78.0499 80.016 77.8179 79.536C77.5859 79.056 77.4699 78.52 77.4699 77.928C77.4699 77.32 77.5939 76.776 77.8419 76.296C78.0899 75.816 78.4379 75.44 78.8859 75.168C79.3419 74.896 79.8579 74.76 80.4339 74.76C80.9139 74.76 81.3659 74.872 81.7899 75.096C82.2219 75.312 82.5699 75.652 82.8339 76.116C83.0979 76.58 83.2299 77.156 83.2299 77.844ZM82.0779 77.304C82.0379 76.84 81.8779 76.468 81.5979 76.188C81.3179 75.908 80.9499 75.768 80.4939 75.768C79.9579 75.768 79.5419 75.908 79.2459 76.188C78.9579 76.468 78.7659 76.84 78.6699 77.304H82.0779ZM90.7458 74.76C91.3778 74.76 91.8818 74.956 92.2578 75.348C92.6418 75.732 92.8338 76.368 92.8338 77.256V81H91.6818V77.112C91.6818 76.216 91.2778 75.768 90.4698 75.768C90.2378 75.768 90.0138 75.84 89.7978 75.984C89.5898 76.12 89.4178 76.32 89.2818 76.584C89.1538 76.848 89.0898 77.16 89.0898 77.52V81H87.9378V77.256C87.9378 76.768 87.8498 76.4 87.6738 76.152C87.4978 75.896 87.2178 75.768 86.8338 75.768C86.5858 75.768 86.3458 75.852 86.1138 76.02C85.8818 76.188 85.6938 76.428 85.5498 76.74C85.4138 77.044 85.3458 77.392 85.3458 77.784V81H84.1938V74.856H85.3458V75.264C85.3458 75.504 85.3018 75.764 85.2138 76.044C85.2138 76.06 85.2058 76.088 85.1898 76.128C85.1818 76.16 85.1818 76.188 85.1898 76.212C85.1978 76.228 85.2138 76.24 85.2378 76.248H85.2738C85.3138 76.248 85.3458 76.216 85.3698 76.152C85.5218 75.728 85.7618 75.392 86.0898 75.144C86.4258 74.888 86.8018 74.76 87.2178 74.76C87.6018 74.76 87.9378 74.884 88.2258 75.132C88.5138 75.372 88.7018 75.684 88.7898 76.068C88.8058 76.132 88.8458 76.164 88.9098 76.164C88.9738 76.164 89.0178 76.132 89.0418 76.068C89.2018 75.652 89.4298 75.332 89.7258 75.108C90.0298 74.876 90.3698 74.76 90.7458 74.76ZM98.0219 81V72.552H99.2699V81H98.0219ZM101.963 75.336C101.963 75.536 101.923 75.756 101.843 75.996C101.835 76.012 101.823 76.044 101.807 76.092C101.791 76.132 101.783 76.168 101.783 76.2C101.791 76.224 101.811 76.24 101.843 76.248L101.879 76.26C101.919 76.26 101.955 76.216 101.987 76.128C102.179 75.712 102.451 75.38 102.803 75.132C103.163 74.884 103.579 74.76 104.051 74.76C104.571 74.76 105.035 74.896 105.443 75.168C105.859 75.44 106.183 75.82 106.415 76.308C106.647 76.788 106.763 77.328 106.763 77.928C106.763 78.528 106.647 79.072 106.415 79.56C106.183 80.04 105.859 80.416 105.443 80.688C105.035 80.96 104.571 81.096 104.051 81.096C103.587 81.096 103.175 80.972 102.815 80.724C102.455 80.468 102.179 80.128 101.987 79.704C101.955 79.616 101.915 79.58 101.867 79.596C101.819 79.604 101.795 79.632 101.795 79.68C101.795 79.72 101.811 79.772 101.843 79.836C101.923 80.084 101.963 80.3 101.963 80.484V83.304H100.811V74.856H101.963V75.336ZM103.811 80.04C104.387 80.04 104.831 79.84 105.143 79.44C105.455 79.032 105.611 78.528 105.611 77.928C105.611 77.328 105.455 76.828 105.143 76.428C104.831 76.02 104.387 75.816 103.811 75.816C103.459 75.816 103.139 75.912 102.851 76.104C102.571 76.296 102.351 76.556 102.191 76.884C102.039 77.204 101.963 77.552 101.963 77.928C101.963 78.304 102.039 78.656 102.191 78.984C102.351 79.304 102.571 79.56 102.851 79.752C103.139 79.944 103.459 80.04 103.811 80.04ZM108.657 78.864C108.665 79.04 108.721 79.224 108.825 79.416C108.929 79.6 109.101 79.76 109.341 79.896C109.581 80.024 109.885 80.088 110.253 80.088C110.789 80.088 111.173 80.004 111.405 79.836C111.637 79.668 111.753 79.464 111.753 79.224C111.753 79.04 111.689 78.896 111.561 78.792C111.441 78.68 111.245 78.592 110.973 78.528C110.709 78.464 110.329 78.408 109.833 78.36C109.081 78.28 108.541 78.088 108.213 77.784C107.885 77.48 107.721 77.104 107.721 76.656C107.721 76.336 107.817 76.032 108.009 75.744C108.201 75.448 108.485 75.212 108.861 75.036C109.245 74.852 109.705 74.76 110.241 74.76C110.985 74.76 111.573 74.952 112.005 75.336C112.437 75.712 112.673 76.2 112.713 76.8H111.585C111.561 76.536 111.445 76.3 111.237 76.092C111.029 75.876 110.685 75.768 110.205 75.768C109.749 75.768 109.413 75.848 109.197 76.008C108.981 76.16 108.873 76.348 108.873 76.572C108.873 76.788 108.977 76.96 109.185 77.088C109.393 77.216 109.809 77.312 110.433 77.376C111.281 77.464 111.905 77.64 112.305 77.904C112.705 78.168 112.905 78.548 112.905 79.044C112.905 79.668 112.661 80.168 112.173 80.544C111.693 80.912 111.037 81.096 110.205 81.096C109.381 81.096 108.737 80.896 108.273 80.496C107.809 80.096 107.561 79.552 107.529 78.864H108.657ZM116.141 81.096C115.413 81.096 114.849 80.884 114.449 80.46C114.057 80.036 113.861 79.384 113.861 78.504V74.856H115.013V78.264C115.013 78.936 115.137 79.408 115.385 79.68C115.641 79.952 115.989 80.088 116.429 80.088C116.733 80.088 117.025 79.992 117.305 79.8C117.593 79.6 117.825 79.32 118.001 78.96C118.185 78.6 118.277 78.188 118.277 77.724V74.856H119.429V81H118.277V80.592C118.277 80.304 118.321 80.032 118.409 79.776C118.441 79.696 118.457 79.64 118.457 79.608C118.457 79.568 118.437 79.54 118.397 79.524H118.373C118.341 79.524 118.305 79.56 118.265 79.632C118.081 80 117.805 80.336 117.437 80.64C117.069 80.944 116.637 81.096 116.141 81.096ZM127.425 74.76C128.057 74.76 128.561 74.956 128.937 75.348C129.321 75.732 129.513 76.368 129.513 77.256V81H128.361V77.112C128.361 76.216 127.957 75.768 127.149 75.768C126.917 75.768 126.693 75.84 126.477 75.984C126.269 76.12 126.097 76.32 125.961 76.584C125.833 76.848 125.769 77.16 125.769 77.52V81H124.617V77.256C124.617 76.768 124.529 76.4 124.353 76.152C124.177 75.896 123.897 75.768 123.513 75.768C123.265 75.768 123.025 75.852 122.793 76.02C122.561 76.188 122.373 76.428 122.229 76.74C122.093 77.044 122.025 77.392 122.025 77.784V81H120.873V74.856H122.025V75.264C122.025 75.504 121.981 75.764 121.893 76.044C121.893 76.06 121.885 76.088 121.869 76.128C121.861 76.16 121.861 76.188 121.869 76.212C121.877 76.228 121.893 76.24 121.917 76.248H121.953C121.993 76.248 122.025 76.216 122.049 76.152C122.201 75.728 122.441 75.392 122.769 75.144C123.105 74.888 123.481 74.76 123.897 74.76C124.281 74.76 124.617 74.884 124.905 75.132C125.193 75.372 125.381 75.684 125.469 76.068C125.485 76.132 125.525 76.164 125.589 76.164C125.653 76.164 125.697 76.132 125.721 76.068C125.881 75.652 126.109 75.332 126.405 75.108C126.709 74.876 127.049 74.76 127.425 74.76ZM134.654 72.36H135.902V73.704H134.654V72.36ZM134.702 74.856H135.854V81H134.702V74.856ZM138.035 78.864C138.043 79.04 138.099 79.224 138.203 79.416C138.307 79.6 138.479 79.76 138.719 79.896C138.959 80.024 139.263 80.088 139.631 80.088C140.167 80.088 140.551 80.004 140.783 79.836C141.015 79.668 141.131 79.464 141.131 79.224C141.131 79.04 141.067 78.896 140.939 78.792C140.819 78.68 140.623 78.592 140.351 78.528C140.087 78.464 139.707 78.408 139.211 78.36C138.459 78.28 137.919 78.088 137.591 77.784C137.263 77.48 137.099 77.104 137.099 76.656C137.099 76.336 137.195 76.032 137.387 75.744C137.579 75.448 137.863 75.212 138.239 75.036C138.623 74.852 139.083 74.76 139.619 74.76C140.363 74.76 140.951 74.952 141.383 75.336C141.815 75.712 142.051 76.2 142.091 76.8H140.963C140.939 76.536 140.823 76.3 140.615 76.092C140.407 75.876 140.063 75.768 139.583 75.768C139.127 75.768 138.791 75.848 138.575 76.008C138.359 76.16 138.251 76.348 138.251 76.572C138.251 76.788 138.355 76.96 138.563 77.088C138.771 77.216 139.187 77.312 139.811 77.376C140.659 77.464 141.283 77.64 141.683 77.904C142.083 78.168 142.283 78.548 142.283 79.044C142.283 79.668 142.039 80.168 141.551 80.544C141.071 80.912 140.415 81.096 139.583 81.096C138.759 81.096 138.115 80.896 137.651 80.496C137.187 80.096 136.939 79.552 136.907 78.864H138.035ZM148.02 78.864C148.028 79.04 148.084 79.224 148.188 79.416C148.292 79.6 148.464 79.76 148.704 79.896C148.944 80.024 149.248 80.088 149.616 80.088C150.152 80.088 150.536 80.004 150.768 79.836C151 79.668 151.116 79.464 151.116 79.224C151.116 79.04 151.052 78.896 150.924 78.792C150.804 78.68 150.608 78.592 150.336 78.528C150.072 78.464 149.692 78.408 149.196 78.36C148.444 78.28 147.904 78.088 147.576 77.784C147.248 77.48 147.084 77.104 147.084 76.656C147.084 76.336 147.18 76.032 147.372 75.744C147.564 75.448 147.848 75.212 148.224 75.036C148.608 74.852 149.068 74.76 149.604 74.76C150.348 74.76 150.936 74.952 151.368 75.336C151.8 75.712 152.036 76.2 152.076 76.8H150.948C150.924 76.536 150.808 76.3 150.6 76.092C150.392 75.876 150.048 75.768 149.568 75.768C149.112 75.768 148.776 75.848 148.56 76.008C148.344 76.16 148.236 76.348 148.236 76.572C148.236 76.788 148.34 76.96 148.548 77.088C148.756 77.216 149.172 77.312 149.796 77.376C150.644 77.464 151.268 77.64 151.668 77.904C152.068 78.168 152.268 78.548 152.268 79.044C152.268 79.668 152.024 80.168 151.536 80.544C151.056 80.912 150.4 81.096 149.568 81.096C148.744 81.096 148.1 80.896 147.636 80.496C147.172 80.096 146.924 79.552 146.892 78.864H148.02ZM153.275 72.36H154.523V73.704H153.275V72.36ZM153.323 74.856H154.475V81H153.323V74.856ZM162.465 74.76C163.097 74.76 163.601 74.956 163.977 75.348C164.361 75.732 164.553 76.368 164.553 77.256V81H163.401V77.112C163.401 76.216 162.997 75.768 162.189 75.768C161.957 75.768 161.733 75.84 161.517 75.984C161.309 76.12 161.137 76.32 161.001 76.584C160.873 76.848 160.809 77.16 160.809 77.52V81H159.657V77.256C159.657 76.768 159.569 76.4 159.393 76.152C159.217 75.896 158.937 75.768 158.553 75.768C158.305 75.768 158.065 75.852 157.833 76.02C157.601 76.188 157.413 76.428 157.269 76.74C157.133 77.044 157.065 77.392 157.065 77.784V81H155.913V74.856H157.065V75.264C157.065 75.504 157.021 75.764 156.933 76.044C156.933 76.06 156.925 76.088 156.909 76.128C156.901 76.16 156.901 76.188 156.909 76.212C156.917 76.228 156.933 76.24 156.957 76.248H156.993C157.033 76.248 157.065 76.216 157.089 76.152C157.241 75.728 157.481 75.392 157.809 75.144C158.145 74.888 158.521 74.76 158.937 74.76C159.321 74.76 159.657 74.884 159.945 75.132C160.233 75.372 160.421 75.684 160.509 76.068C160.525 76.132 160.565 76.164 160.629 76.164C160.693 76.164 160.737 76.132 160.761 76.068C160.921 75.652 161.149 75.332 161.445 75.108C161.749 74.876 162.089 74.76 162.465 74.76ZM166.955 75.336C166.955 75.536 166.915 75.756 166.835 75.996C166.827 76.012 166.815 76.044 166.799 76.092C166.783 76.132 166.775 76.168 166.775 76.2C166.783 76.224 166.803 76.24 166.835 76.248L166.871 76.26C166.911 76.26 166.947 76.216 166.979 76.128C167.171 75.712 167.443 75.38 167.795 75.132C168.155 74.884 168.571 74.76 169.043 74.76C169.563 74.76 170.027 74.896 170.435 75.168C170.851 75.44 171.175 75.82 171.407 76.308C171.639 76.788 171.755 77.328 171.755 77.928C171.755 78.528 171.639 79.072 171.407 79.56C171.175 80.04 170.851 80.416 170.435 80.688C170.027 80.96 169.563 81.096 169.043 81.096C168.579 81.096 168.167 80.972 167.807 80.724C167.447 80.468 167.171 80.128 166.979 79.704C166.947 79.616 166.907 79.58 166.859 79.596C166.811 79.604 166.787 79.632 166.787 79.68C166.787 79.72 166.803 79.772 166.835 79.836C166.915 80.084 166.955 80.3 166.955 80.484V83.304H165.803V74.856H166.955V75.336ZM168.803 80.04C169.379 80.04 169.823 79.84 170.135 79.44C170.447 79.032 170.603 78.528 170.603 77.928C170.603 77.328 170.447 76.828 170.135 76.428C169.823 76.02 169.379 75.816 168.803 75.816C168.451 75.816 168.131 75.912 167.843 76.104C167.563 76.296 167.343 76.556 167.183 76.884C167.031 77.204 166.955 77.552 166.955 77.928C166.955 78.304 167.031 78.656 167.183 78.984C167.343 79.304 167.563 79.56 167.843 79.752C168.131 79.944 168.451 80.04 168.803 80.04ZM173.963 72.36V81H172.811V72.36H173.963ZM177.537 79.392C177.601 79.56 177.633 79.776 177.633 80.04C177.633 80.088 177.637 80.128 177.645 80.16C177.661 80.184 177.689 80.196 177.729 80.196C177.769 80.196 177.793 80.184 177.801 80.16C177.817 80.128 177.825 80.088 177.825 80.04C177.825 79.824 177.861 79.608 177.933 79.392L179.529 74.856H180.777L178.113 81.732C177.897 82.3 177.625 82.704 177.297 82.944C176.969 83.184 176.529 83.304 175.977 83.304H175.185V82.296H175.737C176.033 82.296 176.257 82.272 176.409 82.224C176.569 82.184 176.685 82.12 176.757 82.032C176.837 81.944 176.913 81.816 176.985 81.648L177.153 81.24L174.633 74.856H175.881L177.537 79.392ZM190.953 81H189.801V80.484C189.801 80.268 189.841 80.052 189.921 79.836C189.953 79.772 189.969 79.72 189.969 79.68C189.969 79.632 189.945 79.604 189.897 79.596H189.873C189.833 79.596 189.801 79.632 189.777 79.704C189.633 80.136 189.373 80.476 188.997 80.724C188.629 80.972 188.201 81.096 187.713 81.096C187.193 81.096 186.725 80.96 186.309 80.688C185.901 80.416 185.581 80.04 185.349 79.56C185.117 79.072 185.001 78.528 185.001 77.928C185.001 77.328 185.117 76.788 185.349 76.308C185.581 75.82 185.901 75.44 186.309 75.168C186.725 74.896 187.193 74.76 187.713 74.76C188.201 74.76 188.633 74.884 189.009 75.132C189.385 75.38 189.641 75.712 189.777 76.128C189.809 76.232 189.857 76.272 189.921 76.248C189.961 76.24 189.981 76.216 189.981 76.176C189.981 76.144 189.973 76.112 189.957 76.08C189.941 76.04 189.929 76.012 189.921 75.996C189.841 75.788 189.801 75.568 189.801 75.336V72.36H190.953V81ZM187.953 80.04C188.305 80.04 188.621 79.944 188.901 79.752C189.189 79.56 189.409 79.304 189.561 78.984C189.721 78.656 189.801 78.304 189.801 77.928C189.801 77.552 189.721 77.204 189.561 76.884C189.409 76.556 189.189 76.296 188.901 76.104C188.621 75.912 188.305 75.816 187.953 75.816C187.377 75.816 186.933 76.02 186.621 76.428C186.309 76.828 186.153 77.328 186.153 77.928C186.153 78.528 186.309 79.032 186.621 79.44C186.933 79.84 187.377 80.04 187.953 80.04ZM194.481 81.096C193.753 81.096 193.189 80.884 192.789 80.46C192.397 80.036 192.201 79.384 192.201 78.504V74.856H193.353V78.264C193.353 78.936 193.477 79.408 193.725 79.68C193.981 79.952 194.329 80.088 194.769 80.088C195.073 80.088 195.365 79.992 195.645 79.8C195.933 79.6 196.165 79.32 196.341 78.96C196.525 78.6 196.617 78.188 196.617 77.724V74.856H197.769V81H196.617V80.592C196.617 80.304 196.661 80.032 196.749 79.776C196.781 79.696 196.797 79.64 196.797 79.608C196.797 79.568 196.777 79.54 196.737 79.524H196.713C196.681 79.524 196.645 79.56 196.605 79.632C196.421 80 196.145 80.336 195.777 80.64C195.409 80.944 194.977 81.096 194.481 81.096ZM205.765 74.76C206.397 74.76 206.901 74.956 207.277 75.348C207.661 75.732 207.853 76.368 207.853 77.256V81H206.701V77.112C206.701 76.216 206.297 75.768 205.489 75.768C205.257 75.768 205.033 75.84 204.817 75.984C204.609 76.12 204.437 76.32 204.301 76.584C204.173 76.848 204.109 77.16 204.109 77.52V81H202.957V77.256C202.957 76.768 202.869 76.4 202.693 76.152C202.517 75.896 202.237 75.768 201.853 75.768C201.605 75.768 201.365 75.852 201.133 76.02C200.901 76.188 200.713 76.428 200.569 76.74C200.433 77.044 200.365 77.392 200.365 77.784V81H199.213V74.856H200.365V75.264C200.365 75.504 200.321 75.764 200.233 76.044C200.233 76.06 200.225 76.088 200.209 76.128C200.201 76.16 200.201 76.188 200.209 76.212C200.217 76.228 200.233 76.24 200.257 76.248H200.293C200.333 76.248 200.365 76.216 200.389 76.152C200.541 75.728 200.781 75.392 201.109 75.144C201.445 74.888 201.821 74.76 202.237 74.76C202.621 74.76 202.957 74.884 203.245 75.132C203.533 75.372 203.721 75.684 203.809 76.068C203.825 76.132 203.865 76.164 203.929 76.164C203.993 76.164 204.037 76.132 204.061 76.068C204.221 75.652 204.449 75.332 204.745 75.108C205.049 74.876 205.389 74.76 205.765 74.76ZM215.656 74.76C216.288 74.76 216.792 74.956 217.168 75.348C217.552 75.732 217.744 76.368 217.744 77.256V81H216.592V77.112C216.592 76.216 216.188 75.768 215.38 75.768C215.148 75.768 214.924 75.84 214.708 75.984C214.5 76.12 214.328 76.32 214.192 76.584C214.064 76.848 214 77.16 214 77.52V81H212.848V77.256C212.848 76.768 212.76 76.4 212.584 76.152C212.408 75.896 212.128 75.768 211.744 75.768C211.496 75.768 211.256 75.852 211.024 76.02C210.792 76.188 210.604 76.428 210.46 76.74C210.324 77.044 210.256 77.392 210.256 77.784V81H209.104V74.856H210.256V75.264C210.256 75.504 210.212 75.764 210.124 76.044C210.124 76.06 210.116 76.088 210.1 76.128C210.092 76.16 210.092 76.188 210.1 76.212C210.108 76.228 210.124 76.24 210.148 76.248H210.184C210.224 76.248 210.256 76.216 210.28 76.152C210.432 75.728 210.672 75.392 211 75.144C211.336 74.888 211.712 74.76 212.128 74.76C212.512 74.76 212.848 74.884 213.136 75.132C213.424 75.372 213.612 75.684 213.7 76.068C213.716 76.132 213.756 76.164 213.82 76.164C213.884 76.164 213.928 76.132 213.952 76.068C214.112 75.652 214.34 75.332 214.636 75.108C214.94 74.876 215.28 74.76 215.656 74.76ZM221.037 79.392C221.101 79.56 221.133 79.776 221.133 80.04C221.133 80.088 221.137 80.128 221.145 80.16C221.161 80.184 221.189 80.196 221.229 80.196C221.269 80.196 221.293 80.184 221.301 80.16C221.317 80.128 221.325 80.088 221.325 80.04C221.325 79.824 221.361 79.608 221.433 79.392L223.029 74.856H224.277L221.613 81.732C221.397 82.3 221.125 82.704 220.797 82.944C220.469 83.184 220.029 83.304 219.477 83.304H218.685V82.296H219.237C219.533 82.296 219.757 82.272 219.909 82.224C220.069 82.184 220.185 82.12 220.257 82.032C220.337 81.944 220.413 81.816 220.485 81.648L220.653 81.24L218.133 74.856H219.381L221.037 79.392Z" fill="white" />
			<rect x="182" y="103" width="143" height="40" rx="20" fill="white" />
			<path d="M209.12 126.04C209.147 126.68 209.327 127.273 209.66 127.82C210.007 128.367 210.6 128.713 211.44 128.86V124.86C209.8 124.58 208.64 124.12 207.96 123.48C207.293 122.827 206.96 121.92 206.96 120.76C206.96 120.093 207.14 119.48 207.5 118.92C207.86 118.347 208.373 117.873 209.04 117.5C209.72 117.127 210.52 116.893 211.44 116.8V115H213.04V116.8C214.493 116.933 215.587 117.42 216.32 118.26C217.067 119.087 217.453 120.08 217.48 121.24H214.9C214.9 120.773 214.747 120.333 214.44 119.92C214.147 119.493 213.68 119.213 213.04 119.08V122.46C214.68 122.687 215.913 123.12 216.74 123.76C217.58 124.387 218 125.4 218 126.8C218 127.533 217.807 128.213 217.42 128.84C217.033 129.453 216.467 129.967 215.72 130.38C214.973 130.793 214.08 131.04 213.04 131.12V132.92H211.44V131.12C210.36 131.013 209.447 130.72 208.7 130.24C207.953 129.747 207.393 129.133 207.02 128.4C206.66 127.667 206.48 126.88 206.48 126.04H209.12ZM209.66 120.64C209.66 121.413 210.253 121.94 211.44 122.22V120.26C211.44 119.98 211.46 119.787 211.5 119.68C211.54 119.56 211.613 119.447 211.72 119.34C211.747 119.313 211.78 119.28 211.82 119.24C211.873 119.2 211.907 119.167 211.92 119.14C211.933 119.1 211.933 119.06 211.92 119.02C211.88 118.94 211.767 118.9 211.58 118.9C211.287 118.9 210.993 118.967 210.7 119.1C210.007 119.433 209.66 119.947 209.66 120.64ZM212.54 128.94C212.58 129.007 212.693 129.04 212.88 129.04C213.173 129.04 213.433 128.993 213.66 128.9C214.22 128.687 214.627 128.4 214.88 128.04C215.147 127.68 215.28 127.32 215.28 126.96C215.28 126.507 215.113 126.133 214.78 125.84C214.447 125.533 213.867 125.293 213.04 125.12V127.76C213.04 128.027 213.02 128.213 212.98 128.32C212.94 128.413 212.867 128.507 212.76 128.6C212.72 128.627 212.673 128.66 212.62 128.7C212.567 128.727 212.533 128.76 212.52 128.8C212.507 128.827 212.513 128.873 212.54 128.94ZM224.4 116.92V131H221.84V121.48H218.64V119.56C219.654 119.56 220.387 119.487 220.84 119.34C221.294 119.18 221.6 118.933 221.76 118.6C221.92 118.253 222.054 117.693 222.16 116.92H224.4ZM228.148 131.74C228.242 131.553 228.382 131.407 228.568 131.3C228.595 131.287 228.655 131.26 228.748 131.22C228.842 131.18 228.908 131.14 228.948 131.1C228.988 131.06 229.008 131.02 229.008 130.98C229.008 130.873 228.962 130.82 228.868 130.82C228.842 130.82 228.735 130.847 228.548 130.9C228.348 130.967 228.135 131 227.908 131H227.288V128.12H230.168V130.72C230.168 131 230.122 131.247 230.028 131.46C229.948 131.673 229.755 132.06 229.448 132.62L229.008 133.4H227.288L228.148 131.74ZM232.081 128.28C232.948 127.787 233.668 127.393 234.241 127.1C235.654 126.34 236.734 125.72 237.481 125.24C238.241 124.747 238.861 124.187 239.341 123.56C239.834 122.92 240.081 122.193 240.081 121.38C240.081 120.713 239.834 120.18 239.341 119.78C238.848 119.367 238.188 119.16 237.361 119.16C236.494 119.16 235.821 119.427 235.341 119.96C234.874 120.493 234.641 121.18 234.641 122.02H232.081C232.081 121.02 232.281 120.127 232.681 119.34C233.081 118.54 233.681 117.913 234.481 117.46C235.281 116.993 236.241 116.76 237.361 116.76C238.428 116.76 239.361 116.96 240.161 117.36C240.961 117.747 241.574 118.293 242.001 119C242.428 119.693 242.641 120.487 242.641 121.38C242.641 122.54 242.334 123.547 241.721 124.4C241.108 125.24 240.368 125.933 239.501 126.48C238.634 127.027 237.494 127.647 236.081 128.34L235.301 128.72C235.101 128.813 235.041 128.933 235.121 129.08C235.161 129.147 235.214 129.18 235.281 129.18C235.321 129.18 235.368 129.167 235.421 129.14C235.488 129.113 235.534 129.093 235.561 129.08C235.828 128.947 236.081 128.847 236.321 128.78C236.574 128.713 236.868 128.68 237.201 128.68H242.961V131H232.081V128.28ZM244.874 128.28C245.741 127.787 246.461 127.393 247.034 127.1C248.447 126.34 249.527 125.72 250.274 125.24C251.034 124.747 251.654 124.187 252.134 123.56C252.627 122.92 252.874 122.193 252.874 121.38C252.874 120.713 252.627 120.18 252.134 119.78C251.641 119.367 250.981 119.16 250.154 119.16C249.287 119.16 248.614 119.427 248.134 119.96C247.667 120.493 247.434 121.18 247.434 122.02H244.874C244.874 121.02 245.074 120.127 245.474 119.34C245.874 118.54 246.474 117.913 247.274 117.46C248.074 116.993 249.034 116.76 250.154 116.76C251.221 116.76 252.154 116.96 252.954 117.36C253.754 117.747 254.367 118.293 254.794 119C255.221 119.693 255.434 120.487 255.434 121.38C255.434 122.54 255.127 123.547 254.514 124.4C253.901 125.24 253.161 125.933 252.294 126.48C251.427 127.027 250.287 127.647 248.874 128.34L248.094 128.72C247.894 128.813 247.834 128.933 247.914 129.08C247.954 129.147 248.007 129.18 248.074 129.18C248.114 129.18 248.161 129.167 248.214 129.14C248.281 129.113 248.327 129.093 248.354 129.08C248.621 128.947 248.874 128.847 249.114 128.78C249.367 128.713 249.661 128.68 249.994 128.68H255.754V131H244.874V128.28ZM263.107 116.76C264.334 116.76 265.374 117.073 266.227 117.7C267.094 118.313 267.747 119.167 268.187 120.26C268.64 121.34 268.867 122.573 268.867 123.96C268.867 125.347 268.64 126.587 268.187 127.68C267.747 128.76 267.094 129.613 266.227 130.24C265.374 130.853 264.334 131.16 263.107 131.16C261.88 131.16 260.834 130.853 259.967 130.24C259.114 129.613 258.46 128.76 258.007 127.68C257.567 126.587 257.347 125.347 257.347 123.96C257.347 122.573 257.567 121.34 258.007 120.26C258.46 119.167 259.114 118.313 259.967 117.7C260.834 117.073 261.88 116.76 263.107 116.76ZM263.107 128.76C264.147 128.76 264.94 128.327 265.487 127.46C266.034 126.58 266.307 125.413 266.307 123.96C266.307 122.507 266.034 121.347 265.487 120.48C264.94 119.6 264.147 119.16 263.107 119.16C262.067 119.16 261.274 119.6 260.727 120.48C260.18 121.347 259.907 122.507 259.907 123.96C259.907 125.413 260.18 126.58 260.727 127.46C261.274 128.327 262.067 128.76 263.107 128.76ZM273.352 128.12V131H270.472V128.12H273.352ZM280.705 116.76C281.931 116.76 282.971 117.073 283.825 117.7C284.691 118.313 285.345 119.167 285.785 120.26C286.238 121.34 286.465 122.573 286.465 123.96C286.465 125.347 286.238 126.587 285.785 127.68C285.345 128.76 284.691 129.613 283.825 130.24C282.971 130.853 281.931 131.16 280.705 131.16C279.478 131.16 278.431 130.853 277.565 130.24C276.711 129.613 276.058 128.76 275.605 127.68C275.165 126.587 274.945 125.347 274.945 123.96C274.945 122.573 275.165 121.34 275.605 120.26C276.058 119.167 276.711 118.313 277.565 117.7C278.431 117.073 279.478 116.76 280.705 116.76ZM280.705 128.76C281.745 128.76 282.538 128.327 283.085 127.46C283.631 126.58 283.905 125.413 283.905 123.96C283.905 122.507 283.631 121.347 283.085 120.48C282.538 119.6 281.745 119.16 280.705 119.16C279.665 119.16 278.871 119.6 278.325 120.48C277.778 121.347 277.505 122.507 277.505 123.96C277.505 125.413 277.778 126.58 278.325 127.46C278.871 128.327 279.665 128.76 280.705 128.76ZM293.83 116.76C295.056 116.76 296.096 117.073 296.95 117.7C297.816 118.313 298.47 119.167 298.91 120.26C299.363 121.34 299.59 122.573 299.59 123.96C299.59 125.347 299.363 126.587 298.91 127.68C298.47 128.76 297.816 129.613 296.95 130.24C296.096 130.853 295.056 131.16 293.83 131.16C292.603 131.16 291.556 130.853 290.69 130.24C289.836 129.613 289.183 128.76 288.73 127.68C288.29 126.587 288.07 125.347 288.07 123.96C288.07 122.573 288.29 121.34 288.73 120.26C289.183 119.167 289.836 118.313 290.69 117.7C291.556 117.073 292.603 116.76 293.83 116.76ZM293.83 128.76C294.87 128.76 295.663 128.327 296.21 127.46C296.756 126.58 297.03 125.413 297.03 123.96C297.03 122.507 296.756 121.347 296.21 120.48C295.663 119.6 294.87 119.16 293.83 119.16C292.79 119.16 291.996 119.6 291.45 120.48C290.903 121.347 290.63 122.507 290.63 123.96C290.63 125.413 290.903 126.58 291.45 127.46C291.996 128.327 292.79 128.76 293.83 128.76Z" fill="#101828" />
			<path d="M63.84 46.92V58.6H70.72V61H61.12V46.92H63.84ZM76.9514 50.28C78.0181 50.28 78.9514 50.52 79.7514 51C80.5514 51.48 81.1647 52.1333 81.5914 52.96C82.0181 53.7867 82.2314 54.7067 82.2314 55.72C82.2314 56.7333 82.0181 57.6533 81.5914 58.48C81.1647 59.3067 80.5514 59.96 79.7514 60.44C78.9514 60.92 78.0181 61.16 76.9514 61.16C75.8847 61.16 74.9514 60.92 74.1514 60.44C73.3514 59.96 72.7381 59.3067 72.3114 58.48C71.8847 57.6533 71.6714 56.7333 71.6714 55.72C71.6714 54.7067 71.8847 53.7867 72.3114 52.96C72.7381 52.1333 73.3514 51.48 74.1514 51C74.9514 50.52 75.8847 50.28 76.9514 50.28ZM76.9514 58.84C77.7914 58.84 78.4514 58.5467 78.9314 57.96C79.4247 57.36 79.6714 56.6133 79.6714 55.72C79.6714 54.8267 79.4247 54.0867 78.9314 53.5C78.4514 52.9 77.7914 52.6 76.9514 52.6C76.1114 52.6 75.4447 52.9 74.9514 53.5C74.4714 54.0867 74.2314 54.8267 74.2314 55.72C74.2314 56.6133 74.4714 57.36 74.9514 57.96C75.4447 58.5467 76.1114 58.84 76.9514 58.84ZM85.9023 52.7C85.9557 52.7 86.0023 52.68 86.0423 52.64C86.0823 52.5867 86.109 52.54 86.1223 52.5C86.3623 51.9533 86.609 51.5267 86.8623 51.22C87.1157 50.9133 87.4823 50.68 87.9623 50.52C88.4423 50.36 89.0957 50.28 89.9223 50.28V52.88C89.7623 52.8667 89.5423 52.86 89.2623 52.86C88.0757 52.86 87.249 53.14 86.7823 53.7C86.3157 54.2467 86.0823 55.1533 86.0823 56.42V61H83.5223V50.44H86.0823V51.02C86.0823 51.4333 85.9823 51.84 85.7823 52.24C85.729 52.3467 85.7023 52.4333 85.7023 52.5C85.7023 52.6067 85.7623 52.6733 85.8823 52.7H85.9023ZM100.486 55.58C100.486 55.7933 100.466 56.0533 100.426 56.36H92.7456C92.839 57.16 93.1323 57.7867 93.6256 58.24C94.119 58.6933 94.7656 58.92 95.5656 58.92C96.6456 58.92 97.359 58.3867 97.7056 57.32H100.306C100.066 58.48 99.5456 59.4133 98.7456 60.12C97.959 60.8133 96.8923 61.16 95.5456 61.16C94.439 61.16 93.4856 60.9267 92.6856 60.46C91.8856 59.9933 91.279 59.3533 90.8656 58.54C90.4523 57.7133 90.2456 56.7733 90.2456 55.72C90.2456 54.6267 90.459 53.6733 90.8856 52.86C91.3123 52.0333 91.919 51.4 92.7056 50.96C93.5056 50.5067 94.439 50.28 95.5056 50.28C96.3723 50.28 97.179 50.4667 97.9256 50.84C98.6856 51.2 99.299 51.78 99.7656 52.58C100.246 53.3667 100.486 54.3667 100.486 55.58ZM97.9256 54.6C97.8723 53.9333 97.6456 53.3933 97.2456 52.98C96.8456 52.5667 96.2923 52.36 95.5856 52.36C94.0656 52.36 93.1523 53.1067 92.8456 54.6H97.9256ZM113.325 50.28C114.351 50.28 115.185 50.6067 115.825 51.26C116.478 51.9133 116.805 52.9733 116.805 54.44V61H114.245V54.84C114.245 54.04 114.111 53.4667 113.845 53.12C113.591 52.7733 113.158 52.6 112.545 52.6C111.971 52.6 111.498 52.8867 111.125 53.46C110.751 54.02 110.565 54.76 110.565 55.68V61L108.005 61V55.08C108.005 54.2 107.905 53.5667 107.705 53.18C107.505 52.7933 107.098 52.6 106.485 52.6C106.071 52.6 105.698 52.7533 105.365 53.06C105.045 53.3533 104.791 53.7733 104.605 54.32C104.418 54.8533 104.325 55.4533 104.325 56.12V61H101.765V50.44H104.325V51.04C104.325 51.28 104.298 51.48 104.245 51.64C104.191 51.8 104.105 52.02 103.985 52.3C103.931 52.4067 103.905 52.4933 103.905 52.56C103.905 52.64 103.951 52.7 104.045 52.74L104.125 52.76C104.205 52.76 104.265 52.7267 104.305 52.66C104.345 52.58 104.365 52.5333 104.365 52.52C104.645 51.8133 105.031 51.2667 105.525 50.88C106.018 50.48 106.605 50.28 107.285 50.28C107.951 50.28 108.505 50.4733 108.945 50.86C109.385 51.2333 109.678 51.7333 109.825 52.36C109.865 52.4933 109.965 52.56 110.125 52.56C110.258 52.56 110.351 52.5 110.405 52.38C110.698 51.7133 111.098 51.2 111.605 50.84C112.125 50.4667 112.698 50.28 113.325 50.28ZM124.792 61V46.92H127.512V61H124.792ZM132.313 50.84C132.313 51.2 132.219 51.5667 132.033 51.94C132.019 51.98 131.993 52.04 131.953 52.12C131.926 52.2 131.913 52.2667 131.913 52.32C131.913 52.3867 131.946 52.44 132.013 52.48L132.093 52.5C132.186 52.5 132.253 52.46 132.293 52.38C132.333 52.3 132.359 52.2533 132.373 52.24C132.719 51.64 133.166 51.1667 133.713 50.82C134.273 50.46 134.939 50.28 135.713 50.28C136.606 50.28 137.399 50.52 138.093 51C138.799 51.48 139.346 52.1333 139.733 52.96C140.119 53.7867 140.313 54.7067 140.313 55.72C140.313 56.7333 140.119 57.6533 139.733 58.48C139.346 59.3067 138.799 59.96 138.093 60.44C137.399 60.92 136.606 61.16 135.713 61.16C134.953 61.16 134.286 60.9867 133.713 60.64C133.153 60.28 132.706 59.7933 132.373 59.18C132.373 59.1667 132.346 59.12 132.293 59.04C132.253 58.96 132.179 58.94 132.073 58.98C131.979 59.02 131.933 59.08 131.933 59.16C131.933 59.2533 131.966 59.3533 132.033 59.46C132.219 59.8333 132.313 60.1933 132.313 60.54V64.84H129.753V50.44H132.313V50.84ZM135.113 58.84C135.966 58.84 136.619 58.5467 137.073 57.96C137.526 57.36 137.753 56.6133 137.753 55.72C137.753 54.8267 137.526 54.0867 137.073 53.5C136.619 52.9 135.966 52.6 135.113 52.6C134.566 52.6 134.079 52.74 133.653 53.02C133.226 53.3 132.893 53.68 132.653 54.16C132.426 54.64 132.313 55.16 132.313 55.72C132.313 56.28 132.426 56.8 132.653 57.28C132.893 57.76 133.226 58.14 133.653 58.42C134.079 58.7 134.566 58.84 135.113 58.84ZM143.801 57.44C143.814 57.92 143.994 58.3267 144.341 58.66C144.701 58.9933 145.301 59.16 146.141 59.16C146.914 59.16 147.467 59.0467 147.801 58.82C148.147 58.5933 148.321 58.2867 148.321 57.9C148.321 57.6467 148.207 57.4533 147.981 57.32C147.767 57.1867 147.467 57.0867 147.081 57.02C146.694 56.94 146.087 56.8533 145.261 56.76C143.821 56.5867 142.847 56.2 142.341 55.6C141.847 54.9867 141.601 54.2867 141.601 53.5C141.601 52.9133 141.774 52.38 142.121 51.9C142.467 51.4067 142.981 51.0133 143.661 50.72C144.341 50.4267 145.161 50.28 146.121 50.28C147.467 50.28 148.527 50.6 149.301 51.24C150.074 51.8667 150.494 52.68 150.561 53.68L148.041 53.68C148.001 53.28 147.827 52.9467 147.521 52.68C147.227 52.4133 146.741 52.28 146.061 52.28C144.794 52.28 144.161 52.64 144.161 53.36C144.161 53.56 144.207 53.7267 144.301 53.86C144.407 53.9933 144.627 54.1133 144.961 54.22C145.294 54.3267 145.787 54.4133 146.441 54.48C147.841 54.6267 148.927 54.9533 149.701 55.46C150.487 55.9533 150.881 56.7 150.881 57.7C150.881 58.8067 150.461 59.66 149.621 60.26C148.794 60.86 147.607 61.16 146.061 61.16C144.567 61.16 143.407 60.8333 142.581 60.18C141.767 59.5133 141.334 58.6 141.281 57.44H143.801ZM155.967 61.16C154.794 61.16 153.867 60.78 153.187 60.02C152.507 59.26 152.167 58.1467 152.167 56.68V50.44H154.727V55.8C154.727 56.9467 154.881 57.74 155.187 58.18C155.494 58.62 155.994 58.84 156.687 58.84C157.181 58.84 157.641 58.6667 158.067 58.32C158.507 57.9733 158.861 57.4867 159.127 56.86C159.394 56.2333 159.527 55.5267 159.527 54.74V50.44H162.087V61H159.527V60.34C159.527 60.0467 159.554 59.8 159.607 59.6C159.661 59.3867 159.741 59.1533 159.847 58.9C159.914 58.7267 159.947 58.62 159.947 58.58C159.947 58.46 159.894 58.3933 159.787 58.38H159.727C159.634 58.38 159.554 58.46 159.487 58.62C159.154 59.2867 158.687 59.88 158.087 60.4C157.501 60.9067 156.794 61.16 155.967 61.16ZM175.727 50.28C176.754 50.28 177.587 50.6067 178.227 51.26C178.88 51.9133 179.207 52.9733 179.207 54.44V61H176.647V54.84C176.647 54.04 176.514 53.4667 176.247 53.12C175.994 52.7733 175.56 52.6 174.947 52.6C174.374 52.6 173.9 52.8867 173.527 53.46C173.154 54.02 172.967 54.76 172.967 55.68V61H170.407V55.08C170.407 54.2 170.307 53.5667 170.107 53.18C169.907 52.7933 169.5 52.6 168.887 52.6C168.474 52.6 168.1 52.7533 167.767 53.06C167.447 53.3533 167.194 53.7733 167.007 54.32C166.82 54.8533 166.727 55.4533 166.727 56.12V61H164.167V50.44H166.727V51.04C166.727 51.28 166.7 51.48 166.647 51.64C166.594 51.8 166.507 52.02 166.387 52.3C166.334 52.4067 166.307 52.4933 166.307 52.56C166.307 52.64 166.354 52.7 166.447 52.74L166.527 52.76C166.607 52.76 166.667 52.7267 166.707 52.66C166.747 52.58 166.767 52.5333 166.767 52.52C167.047 51.8133 167.434 51.2667 167.927 50.88C168.42 50.48 169.007 50.28 169.687 50.28C170.354 50.28 170.907 50.4733 171.347 50.86C171.787 51.2333 172.08 51.7333 172.227 52.36C172.267 52.4933 172.367 52.56 172.527 52.56C172.66 52.56 172.754 52.5 172.807 52.38C173.1 51.7133 173.5 51.2 174.007 50.84C174.527 50.4667 175.1 50.28 175.727 50.28ZM187.194 46.6H189.754V49.16H187.194V46.6ZM187.194 50.44H189.754V61H187.194V50.44ZM193.723 57.44C193.736 57.92 193.916 58.3267 194.263 58.66C194.623 58.9933 195.223 59.16 196.063 59.16C196.836 59.16 197.389 59.0467 197.723 58.82C198.069 58.5933 198.243 58.2867 198.243 57.9C198.243 57.6467 198.129 57.4533 197.903 57.32C197.689 57.1867 197.389 57.0867 197.003 57.02C196.616 56.94 196.009 56.8533 195.183 56.76C193.743 56.5867 192.769 56.2 192.263 55.6C191.769 54.9867 191.523 54.2867 191.523 53.5C191.523 52.9133 191.696 52.38 192.043 51.9C192.389 51.4067 192.903 51.0133 193.583 50.72C194.263 50.4267 195.083 50.28 196.043 50.28C197.389 50.28 198.449 50.6 199.223 51.24C199.996 51.8667 200.416 52.68 200.483 53.68H197.963C197.923 53.28 197.749 52.9467 197.443 52.68C197.149 52.4133 196.663 52.28 195.983 52.28C194.716 52.28 194.083 52.64 194.083 53.36C194.083 53.56 194.129 53.7267 194.223 53.86C194.329 53.9933 194.549 54.1133 194.883 54.22C195.216 54.3267 195.709 54.4133 196.363 54.48C197.763 54.6267 198.849 54.9533 199.623 55.46C200.409 55.9533 200.803 56.7 200.803 57.7C200.803 58.8067 200.383 59.66 199.543 60.26C198.716 60.86 197.529 61.16 195.983 61.16C194.489 61.16 193.329 60.8333 192.503 60.18C191.689 59.5133 191.256 58.6 191.203 57.44H193.723Z" fill="white" />
		</g>
	</g>
	<defs>
		<filter id="filter0_d_890_382" x="0" y="0" width="379" height="208" filterUnits="userSpaceOnUse" color-interpolation-filters="sRGB">
			<feFlood flood-opacity="0" result="BackgroundImageFix" />
			<feColorMatrix in="SourceAlpha" type="matrix" values="0 0 0 0 0 0 0 0 0 0 0 0 0 0 0 0 0 0 127 0" result="hardAlpha" />
			<feOffset dy="11" />
			<feGaussianBlur stdDeviation="20" />
			<feComposite in2="hardAlpha" operator="out" />
			<feColorMatrix type="matrix" values="0 0 0 0 0.560784 0 0 0 0 0.321569 0 0 0 0 1 0 0 0 0.25 0" />
			<feBlend mode="normal" in2="BackgroundImageFix" result="effect1_dropShadow_890_382" />
			<feBlend mode="normal" in="SourceGraphic" in2="effect1_dropShadow_890_382" result="shape" />
		</filter>
		<clipPath id="clip0_890_382">
			<rect x="40" y="29" width="299" height="128" rx="24" fill="white" />
		</clipPath>
	</defs>
</svg>
