<svg width="231" height="189" viewBox="0 0 231 189" fill="none" xmlns="http://www.w3.org/2000/svg">
	<g filter="url(#filter0_d_890_398)">
		<rect x="32" y="21" width="167" height="125" rx="16" fill="white" />
		<path d="M64.576 45.576V85H57.408V58.344H48.448V52.968C51.2853 52.968 53.3387 52.7627 54.608 52.352C55.8773 51.904 56.736 51.2133 57.184 50.28C57.632 49.3093 58.0053 47.7413 58.304 45.576H64.576ZM73.5579 77.384C75.9845 76.0027 78.0005 74.9013 79.6059 74.08C83.5632 71.952 86.5872 70.216 88.6779 68.872C90.8059 67.4907 92.5419 65.9227 93.8859 64.168C95.2672 62.376 95.9579 60.3413 95.9579 58.064C95.9579 56.1973 95.2672 54.704 93.8859 53.584C92.5045 52.4267 90.6565 51.848 88.3419 51.848C85.9152 51.848 84.0299 52.5947 82.6859 54.088C81.3792 55.5813 80.7259 57.504 80.7259 59.856H73.5579C73.5579 57.056 74.1179 54.5547 75.2379 52.352C76.3579 50.112 78.0379 48.3573 80.2779 47.088C82.5179 45.7813 85.2059 45.128 88.3419 45.128C91.3285 45.128 93.9419 45.688 96.1819 46.808C98.4219 47.8907 100.139 49.4213 101.334 51.4C102.529 53.3413 103.126 55.5627 103.126 58.064C103.126 61.312 102.267 64.1307 100.55 66.52C98.8325 68.872 96.7605 70.8133 94.3339 72.344C91.9072 73.8747 88.7152 75.6107 84.7579 77.552L82.5739 78.616C82.0139 78.8773 81.8459 79.2133 82.0699 79.624C82.1819 79.8107 82.3312 79.904 82.5179 79.904C82.6299 79.904 82.7605 79.8667 82.9099 79.792C83.0965 79.7173 83.2272 79.6613 83.3019 79.624C84.0485 79.2507 84.7579 78.9707 85.4299 78.784C86.1392 78.5973 86.9605 78.504 87.8939 78.504H104.022V85H73.5579V77.384ZM124.61 45.128C128.045 45.128 130.957 46.0053 133.346 47.76C135.773 49.4773 137.602 51.8667 138.834 54.928C140.104 57.952 140.738 61.4053 140.738 65.288C140.738 69.1707 140.104 72.6427 138.834 75.704C137.602 78.728 135.773 81.1173 133.346 82.872C130.957 84.5893 128.045 85.448 124.61 85.448C121.176 85.448 118.245 84.5893 115.818 82.872C113.429 81.1173 111.6 78.728 110.33 75.704C109.098 72.6427 108.482 69.1707 108.482 65.288C108.482 61.4053 109.098 57.952 110.33 54.928C111.6 51.8667 113.429 49.4773 115.818 47.76C118.245 46.0053 121.176 45.128 124.61 45.128ZM124.61 78.728C127.522 78.728 129.744 77.5147 131.274 75.088C132.805 72.624 133.57 69.3573 133.57 65.288C133.57 61.2187 132.805 57.9707 131.274 55.544C129.744 53.08 127.522 51.848 124.61 51.848C121.698 51.848 119.477 53.08 117.946 55.544C116.416 57.9707 115.65 61.2187 115.65 65.288C115.65 69.3573 116.416 72.624 117.946 75.088C119.477 77.5147 121.698 78.728 124.61 78.728Z" fill="#101828" />
		<path d="M55.68 107.096C55.68 108.365 55.3707 109.357 54.752 110.072C54.1333 110.776 53.248 111.128 52.096 111.128C50.9333 111.128 50.0427 110.776 49.424 110.072C48.816 109.368 48.512 108.376 48.512 107.096H50.176C50.176 108.035 50.3627 108.707 50.736 109.112C51.1093 109.517 51.5627 109.72 52.096 109.72C52.608 109.72 53.0507 109.533 53.424 109.16C53.808 108.787 54 108.141 54 107.224V99.736H55.68V107.096ZM60.9331 102.68C61.7331 102.68 62.4318 102.867 63.0291 103.24C63.6371 103.613 64.1011 104.125 64.4211 104.776C64.7411 105.416 64.9011 106.125 64.9011 106.904C64.9011 107.683 64.7411 108.397 64.4211 109.048C64.1011 109.688 63.6371 110.195 63.0291 110.568C62.4318 110.941 61.7331 111.128 60.9331 111.128C60.1331 111.128 59.4291 110.941 58.8211 110.568C58.2238 110.195 57.7651 109.688 57.4451 109.048C57.1251 108.397 56.9651 107.683 56.9651 106.904C56.9651 106.125 57.1251 105.416 57.4451 104.776C57.7651 104.125 58.2238 103.613 58.8211 103.24C59.4291 102.867 60.1331 102.68 60.9331 102.68ZM60.9331 109.72C61.6798 109.72 62.2718 109.453 62.7091 108.92C63.1465 108.376 63.3651 107.704 63.3651 106.904C63.3651 106.104 63.1465 105.437 62.7091 104.904C62.2718 104.36 61.6798 104.088 60.9331 104.088C60.1865 104.088 59.5945 104.36 59.1571 104.904C58.7198 105.437 58.5011 106.104 58.5011 106.904C58.5011 107.704 58.7198 108.376 59.1571 108.92C59.5945 109.453 60.1865 109.72 60.9331 109.72ZM67.7163 103.448C67.7163 103.715 67.6629 104.008 67.5563 104.328C67.5456 104.349 67.5296 104.392 67.5082 104.456C67.4869 104.509 67.4763 104.557 67.4763 104.6C67.4869 104.632 67.5136 104.653 67.5563 104.664L67.6043 104.68C67.6576 104.68 67.7056 104.621 67.7483 104.504C68.0043 103.949 68.3669 103.507 68.8363 103.176C69.3163 102.845 69.8709 102.68 70.5003 102.68C71.1936 102.68 71.8123 102.861 72.3563 103.224C72.9109 103.587 73.3429 104.093 73.6523 104.744C73.9616 105.384 74.1163 106.104 74.1163 106.904C74.1163 107.704 73.9616 108.429 73.6523 109.08C73.3429 109.72 72.9109 110.221 72.3563 110.584C71.8123 110.947 71.1936 111.128 70.5003 111.128C69.8816 111.128 69.3323 110.963 68.8523 110.632C68.3723 110.291 68.0043 109.837 67.7483 109.272C67.7056 109.155 67.6523 109.107 67.5883 109.128C67.5243 109.139 67.4923 109.176 67.4923 109.24C67.4923 109.293 67.5136 109.363 67.5563 109.448C67.6629 109.779 67.7163 110.067 67.7163 110.312V111H66.1803V99.48H67.7163V103.448ZM70.1803 109.72C70.9483 109.72 71.5403 109.453 71.9563 108.92C72.3723 108.376 72.5803 107.704 72.5803 106.904C72.5803 106.104 72.3723 105.437 71.9563 104.904C71.5403 104.36 70.9483 104.088 70.1803 104.088C69.7109 104.088 69.2843 104.216 68.9003 104.472C68.5269 104.728 68.2336 105.075 68.0203 105.512C67.8176 105.939 67.7163 106.403 67.7163 106.904C67.7163 107.405 67.8176 107.875 68.0203 108.312C68.2336 108.739 68.5269 109.08 68.9003 109.336C69.2843 109.592 69.7109 109.72 70.1803 109.72ZM76.641 108.152C76.6517 108.387 76.7263 108.632 76.865 108.888C77.0037 109.133 77.233 109.347 77.553 109.528C77.873 109.699 78.2783 109.784 78.769 109.784C79.4837 109.784 79.9957 109.672 80.305 109.448C80.6143 109.224 80.769 108.952 80.769 108.632C80.769 108.387 80.6837 108.195 80.513 108.056C80.353 107.907 80.0917 107.789 79.729 107.704C79.377 107.619 78.8703 107.544 78.209 107.48C77.2063 107.373 76.4863 107.117 76.049 106.712C75.6117 106.307 75.393 105.805 75.393 105.208C75.393 104.781 75.521 104.376 75.777 103.992C76.033 103.597 76.4117 103.283 76.913 103.048C77.425 102.803 78.0383 102.68 78.753 102.68C79.745 102.68 80.529 102.936 81.105 103.448C81.681 103.949 81.9957 104.6 82.049 105.4H80.545C80.513 105.048 80.3583 104.733 80.081 104.456C79.8037 104.168 79.345 104.024 78.705 104.024C78.097 104.024 77.649 104.131 77.361 104.344C77.073 104.547 76.929 104.797 76.929 105.096C76.929 105.384 77.0677 105.613 77.345 105.784C77.6223 105.955 78.177 106.083 79.009 106.168C80.1397 106.285 80.9717 106.52 81.505 106.872C82.0383 107.224 82.305 107.731 82.305 108.392C82.305 109.224 81.9797 109.891 81.329 110.392C80.689 110.883 79.8143 111.128 78.705 111.128C77.6063 111.128 76.7477 110.861 76.129 110.328C75.5103 109.795 75.1797 109.069 75.137 108.152H76.641ZM96.8335 111L95.9215 108.312H90.7055L89.7935 111H87.9375L92.0335 99.736H94.5935L98.6895 111H96.8335ZM95.4575 106.904L93.6015 101.4C93.5162 101.112 93.4628 100.888 93.4415 100.728C93.4415 100.717 93.4362 100.696 93.4255 100.664C93.4255 100.621 93.4148 100.589 93.3935 100.568C93.3722 100.547 93.3455 100.536 93.3135 100.536C93.2708 100.536 93.2388 100.552 93.2175 100.584C93.2068 100.616 93.1962 100.648 93.1855 100.68C93.1855 100.701 93.1855 100.717 93.1855 100.728C93.1642 100.888 93.1108 101.112 93.0255 101.4L91.1695 106.904H95.4575ZM101.762 109.304C101.847 109.549 101.89 109.805 101.89 110.072C101.89 110.211 101.933 110.28 102.018 110.28C102.103 110.28 102.146 110.211 102.146 110.072C102.146 109.805 102.189 109.549 102.274 109.304L104.45 102.808H106.114L103.17 111H100.866L97.9219 102.808H99.5859L101.762 109.304ZM106.496 108.712C106.496 107.144 107.478 106.291 109.44 106.152L110.368 106.104C111.072 106.083 111.584 106.029 111.904 105.944C112.235 105.859 112.395 105.667 112.384 105.368C112.363 104.472 111.67 104.024 110.304 104.024C109.622 104.024 109.126 104.141 108.816 104.376C108.507 104.6 108.32 104.931 108.256 105.368H106.752C106.891 104.461 107.28 103.789 107.92 103.352C108.56 102.904 109.376 102.68 110.368 102.68C111.446 102.68 112.304 102.947 112.944 103.48C113.595 104.003 113.92 104.952 113.92 106.328V111H112.384V110.216C112.384 109.917 112.443 109.597 112.56 109.256C112.571 109.224 112.582 109.181 112.592 109.128C112.603 109.075 112.603 109.032 112.592 109C112.592 108.968 112.576 108.947 112.544 108.936L112.496 108.92C112.443 108.92 112.406 108.947 112.384 109C112.374 109.053 112.363 109.085 112.352 109.096C112.118 109.715 111.734 110.211 111.2 110.584C110.667 110.947 110.038 111.128 109.312 111.128C108.8 111.128 108.326 111.027 107.888 110.824C107.462 110.611 107.12 110.323 106.864 109.96C106.619 109.587 106.496 109.171 106.496 108.712ZM112.384 106.584C112.203 106.808 111.947 106.963 111.616 107.048C111.296 107.133 110.816 107.219 110.176 107.304C110.059 107.315 109.846 107.341 109.536 107.384C109.024 107.459 108.646 107.597 108.4 107.8C108.155 107.992 108.032 108.269 108.032 108.632C108.032 108.952 108.15 109.219 108.384 109.432C108.63 109.645 108.987 109.752 109.456 109.752C109.958 109.752 110.427 109.645 110.864 109.432C111.312 109.208 111.675 108.861 111.952 108.392C112.24 107.912 112.384 107.309 112.384 106.584ZM115.773 99.48H117.437V101.272L115.773 101.272V99.48ZM115.837 102.808L117.373 102.808V111H115.837V102.808ZM120.826 99.48V111H119.29V99.48H120.826ZM122.231 108.712C122.231 107.144 123.212 106.291 125.175 106.152L126.103 106.104C126.807 106.083 127.319 106.029 127.639 105.944C127.969 105.859 128.129 105.667 128.119 105.368C128.097 104.472 127.404 104.024 126.039 104.024C125.356 104.024 124.86 104.141 124.551 104.376C124.241 104.6 124.055 104.931 123.991 105.368H122.487C122.625 104.461 123.015 103.789 123.655 103.352C124.295 102.904 125.111 102.68 126.103 102.68C127.18 102.68 128.039 102.947 128.679 103.48C129.329 104.003 129.655 104.952 129.655 106.328V111H128.119V110.216C128.119 109.917 128.177 109.597 128.295 109.256C128.305 109.224 128.316 109.181 128.327 109.128C128.337 109.075 128.337 109.032 128.327 109C128.327 108.968 128.311 108.947 128.279 108.936L128.231 108.92C128.177 108.92 128.14 108.947 128.119 109C128.108 109.053 128.097 109.085 128.087 109.096C127.852 109.715 127.468 110.211 126.935 110.584C126.401 110.947 125.772 111.128 125.047 111.128C124.535 111.128 124.06 111.027 123.623 110.824C123.196 110.611 122.855 110.323 122.599 109.96C122.353 109.587 122.231 109.171 122.231 108.712ZM128.119 106.584C127.937 106.808 127.681 106.963 127.351 107.048C127.031 107.133 126.551 107.219 125.911 107.304C125.793 107.315 125.58 107.341 125.271 107.384C124.759 107.459 124.38 107.597 124.135 107.8C123.889 107.992 123.767 108.269 123.767 108.632C123.767 108.952 123.884 109.219 124.119 109.432C124.364 109.645 124.721 109.752 125.191 109.752C125.692 109.752 126.161 109.645 126.599 109.432C127.047 109.208 127.409 108.861 127.687 108.392C127.975 107.912 128.119 107.309 128.119 106.584ZM133.107 103.448C133.107 103.715 133.054 104.008 132.947 104.328C132.936 104.349 132.92 104.392 132.899 104.456C132.878 104.509 132.867 104.557 132.867 104.6C132.878 104.632 132.904 104.653 132.947 104.664L132.995 104.68C133.048 104.68 133.096 104.621 133.139 104.504C133.395 103.949 133.758 103.507 134.227 103.176C134.707 102.845 135.262 102.68 135.891 102.68C136.584 102.68 137.203 102.861 137.747 103.224C138.302 103.587 138.734 104.093 139.043 104.744C139.352 105.384 139.507 106.104 139.507 106.904C139.507 107.704 139.352 108.429 139.043 109.08C138.734 109.72 138.302 110.221 137.747 110.584C137.203 110.947 136.584 111.128 135.891 111.128C135.272 111.128 134.723 110.963 134.243 110.632C133.763 110.291 133.395 109.837 133.139 109.272C133.096 109.155 133.043 109.107 132.979 109.128C132.915 109.139 132.883 109.176 132.883 109.24C132.883 109.293 132.904 109.363 132.947 109.448C133.054 109.779 133.107 110.067 133.107 110.312V111H131.571V99.48H133.107V103.448ZM135.571 109.72C136.339 109.72 136.931 109.453 137.347 108.92C137.763 108.376 137.971 107.704 137.971 106.904C137.971 106.104 137.763 105.437 137.347 104.904C136.931 104.36 136.339 104.088 135.571 104.088C135.102 104.088 134.675 104.216 134.291 104.472C133.918 104.728 133.624 105.075 133.411 105.512C133.208 105.939 133.107 106.403 133.107 106.904C133.107 107.405 133.208 107.875 133.411 108.312C133.624 108.739 133.918 109.08 134.291 109.336C134.675 109.592 135.102 109.72 135.571 109.72ZM142.451 99.48V111H140.915V99.48H142.451ZM151.411 106.792C151.411 106.984 151.395 107.171 151.363 107.352H145.251C145.304 108.035 145.555 108.6 146.003 109.048C146.451 109.496 147.032 109.72 147.747 109.72C148.28 109.72 148.696 109.597 148.995 109.352C149.304 109.096 149.533 108.723 149.683 108.232H151.267C151.085 109.064 150.691 109.757 150.083 110.312C149.485 110.856 148.696 111.128 147.715 111.128C146.883 111.128 146.163 110.941 145.555 110.568C144.957 110.195 144.504 109.688 144.195 109.048C143.885 108.408 143.731 107.693 143.731 106.904C143.731 106.093 143.896 105.368 144.227 104.728C144.557 104.088 145.021 103.587 145.619 103.224C146.227 102.861 146.915 102.68 147.683 102.68C148.323 102.68 148.925 102.829 149.491 103.128C150.067 103.416 150.531 103.869 150.883 104.488C151.235 105.107 151.411 105.875 151.411 106.792ZM149.875 106.072C149.821 105.453 149.608 104.957 149.235 104.584C148.861 104.211 148.371 104.024 147.763 104.024C147.048 104.024 146.493 104.211 146.099 104.584C145.715 104.957 145.459 105.453 145.331 106.072H149.875Z" fill="#101828" />
	</g>
	<defs>
		<filter id="filter0_d_890_398" x="0" y="0" width="231" height="189" filterUnits="userSpaceOnUse" color-interpolation-filters="sRGB">
			<feFlood flood-opacity="0" result="BackgroundImageFix" />
			<feColorMatrix in="SourceAlpha" type="matrix" values="0 0 0 0 0 0 0 0 0 0 0 0 0 0 0 0 0 0 127 0" result="hardAlpha" />
			<feOffset dy="11" />
			<feGaussianBlur stdDeviation="16" />
			<feComposite in2="hardAlpha" operator="out" />
			<feColorMatrix type="matrix" values="0 0 0 0 0.560784 0 0 0 0 0.321569 0 0 0 0 1 0 0 0 0.25 0" />
			<feBlend mode="normal" in2="BackgroundImageFix" result="effect1_dropShadow_890_398" />
			<feBlend mode="normal" in="SourceGraphic" in2="effect1_dropShadow_890_398" result="shape" />
		</filter>
	</defs>
</svg>
