<svg width="216" height="129" viewBox="0 0 216 129" fill="none" xmlns="http://www.w3.org/2000/svg">
	<g filter="url(#filter0_d_890_405)">
		<rect x="32" y="27" width="152" height="65" rx="16" fill="#8E52FE" shape-rendering="crispEdges" />
		<path d="M85.4 58.88C86.6133 59.0267 87.62 59.2467 88.42 59.54C89.2333 59.82 89.8667 60.26 90.32 60.86C90.7733 61.46 91 62.2733 91 63.3C91 64.0867 90.7733 64.8133 90.32 65.48C89.88 66.1467 89.2267 66.68 88.36 67.08C87.4933 67.4667 86.4533 67.66 85.24 67.66C83.9867 67.66 82.9267 67.42 82.06 66.94C81.1933 66.46 80.5467 65.8333 80.12 65.06C79.6933 64.2867 79.48 63.4467 79.48 62.54H82.12C82.1467 63.2867 82.3867 63.9533 82.84 64.54C83.2933 65.1267 84.0933 65.42 85.24 65.42C85.96 65.42 86.5467 65.32 87 65.12C87.4667 64.9067 87.7933 64.6533 87.98 64.36C88.18 64.0533 88.28 63.7533 88.28 63.46C88.28 62.94 88.06 62.52 87.62 62.2C87.18 61.8667 86.3867 61.6267 85.24 61.48C83.92 61.3067 82.8733 61.0467 82.1 60.7C81.34 60.34 80.7933 59.8867 80.46 59.34C80.1267 58.78 79.96 58.0867 79.96 57.26C79.96 56.5267 80.1733 55.8533 80.6 55.24C81.0267 54.6267 81.64 54.1467 82.44 53.8C83.2533 53.44 84.2 53.26 85.28 53.26C86.44 53.26 87.4067 53.4667 88.18 53.88C88.9533 54.2933 89.5267 54.84 89.9 55.52C90.2733 56.2 90.4667 56.94 90.48 57.74H87.9C87.9 57.1667 87.6867 56.6533 87.26 56.2C86.8333 55.7333 86.16 55.5 85.24 55.5C84.32 55.5 83.66 55.6733 83.26 56.02C82.86 56.3667 82.66 56.74 82.66 57.14C82.66 58.1 83.5733 58.68 85.4 58.88ZM91.9605 64.6C91.9605 63.5067 92.3071 62.7 93.0005 62.18C93.7071 61.6467 94.6405 61.3467 95.8005 61.28L96.8205 61.24C97.7271 61.2133 98.3738 61.1533 98.7605 61.06C99.1471 60.9667 99.3338 60.74 99.3205 60.38C99.3071 59.9267 99.1538 59.56 98.8605 59.28C98.5671 59 98.0138 58.86 97.2005 58.86C96.3738 58.86 95.7871 59.0067 95.4405 59.3C95.0938 59.58 94.8805 59.9667 94.8005 60.46H92.2805C92.4538 59.2067 93.0071 58.28 93.9405 57.68C94.8738 57.08 95.9871 56.78 97.2805 56.78C98.6938 56.78 99.8138 57.1267 100.64 57.82C101.467 58.5133 101.88 59.7933 101.88 61.66V67.5H99.3205V66.76C99.3205 66.36 99.4205 65.9733 99.6205 65.6C99.6738 65.4667 99.7005 65.3667 99.7005 65.3C99.7005 65.22 99.6671 65.1667 99.6005 65.14L99.5205 65.12C99.4405 65.12 99.3805 65.16 99.3405 65.24C99.3005 65.3067 99.2805 65.3467 99.2805 65.36C98.6538 66.8933 97.4405 67.66 95.6405 67.66C94.9871 67.66 94.3738 67.5267 93.8005 67.26C93.2405 66.9933 92.7938 66.6267 92.4605 66.16C92.1271 65.6933 91.9605 65.1733 91.9605 64.6ZM99.3205 62.06C99.0538 62.3533 98.7005 62.56 98.2605 62.68C97.8338 62.7867 97.1605 62.8867 96.2405 62.98C95.6671 63.0467 95.2338 63.2 94.9405 63.44C94.6605 63.6667 94.5205 64.0067 94.5205 64.46C94.5205 64.8467 94.6671 65.16 94.9605 65.4C95.2671 65.64 95.6605 65.76 96.1405 65.76C96.3138 65.76 96.4471 65.7533 96.5405 65.74C97.3271 65.6333 97.9805 65.2933 98.5005 64.72C99.0338 64.1467 99.3071 63.26 99.3205 62.06ZM107.591 64.66C107.685 64.9667 107.731 65.3533 107.731 65.82C107.731 66.02 107.811 66.12 107.971 66.12C108.131 66.12 108.211 66.02 108.211 65.82C108.211 65.3533 108.258 64.9667 108.351 64.66L110.691 56.94H113.411L109.811 67.5H106.131L102.531 56.94H105.251L107.591 64.66ZM123.665 62.08C123.665 62.2933 123.645 62.5533 123.605 62.86L115.925 62.86C116.019 63.66 116.312 64.2867 116.805 64.74C117.299 65.1933 117.945 65.42 118.745 65.42C119.825 65.42 120.539 64.8867 120.885 63.82H123.485C123.245 64.98 122.725 65.9133 121.925 66.62C121.139 67.3133 120.072 67.66 118.725 67.66C117.619 67.66 116.665 67.4267 115.865 66.96C115.065 66.4933 114.459 65.8533 114.045 65.04C113.632 64.2133 113.425 63.2733 113.425 62.22C113.425 61.1267 113.639 60.1733 114.065 59.36C114.492 58.5333 115.099 57.9 115.885 57.46C116.685 57.0067 117.619 56.78 118.685 56.78C119.552 56.78 120.359 56.9667 121.105 57.34C121.865 57.7 122.479 58.28 122.945 59.08C123.425 59.8667 123.665 60.8667 123.665 62.08ZM121.105 61.1C121.052 60.4333 120.825 59.8933 120.425 59.48C120.025 59.0667 119.472 58.86 118.765 58.86C117.245 58.86 116.332 59.6067 116.025 61.1L121.105 61.1ZM135.333 67.5H132.773V67.04C132.773 66.6933 132.866 66.3333 133.053 65.96C133.12 65.8533 133.153 65.7533 133.153 65.66C133.153 65.58 133.106 65.52 133.013 65.48L132.953 65.46C132.873 65.46 132.813 65.4933 132.773 65.56C132.746 65.6267 132.726 65.6667 132.713 65.68C132.3 66.2933 131.826 66.78 131.293 67.14C130.76 67.4867 130.12 67.66 129.373 67.66C128.48 67.66 127.68 67.42 126.973 66.94C126.28 66.46 125.74 65.8067 125.353 64.98C124.966 64.1533 124.773 63.2333 124.773 62.22C124.773 61.2067 124.966 60.2867 125.353 59.46C125.74 58.6333 126.28 57.98 126.973 57.5C127.68 57.02 128.48 56.78 129.373 56.78C130.16 56.78 130.833 56.96 131.393 57.32C131.966 57.6667 132.406 58.14 132.713 58.74C132.82 58.9667 132.94 59.0467 133.073 58.98C133.14 58.94 133.173 58.88 133.173 58.8C133.173 58.72 133.133 58.6 133.053 58.44C132.866 58.0667 132.773 57.7 132.773 57.34V53.1H135.333V67.5ZM129.973 65.34C130.52 65.34 131.006 65.2 131.433 64.92C131.86 64.64 132.186 64.26 132.413 63.78C132.653 63.3 132.773 62.78 132.773 62.22C132.773 61.66 132.653 61.14 132.413 60.66C132.186 60.18 131.86 59.8 131.433 59.52C131.006 59.24 130.52 59.1 129.973 59.1C129.12 59.1 128.466 59.4 128.013 60C127.56 60.5867 127.333 61.3267 127.333 62.22C127.333 63.1133 127.56 63.86 128.013 64.46C128.466 65.0467 129.12 65.34 129.973 65.34Z" fill="white" />
	</g>
	<defs>
		<filter id="filter0_d_890_405" x="0" y="0" width="216" height="129" filterUnits="userSpaceOnUse" color-interpolation-filters="sRGB">
			<feFlood flood-opacity="0" result="BackgroundImageFix" />
			<feColorMatrix in="SourceAlpha" type="matrix" values="0 0 0 0 0 0 0 0 0 0 0 0 0 0 0 0 0 0 127 0" result="hardAlpha" />
			<feOffset dy="5" />
			<feGaussianBlur stdDeviation="16" />
			<feComposite in2="hardAlpha" operator="out" />
			<feColorMatrix type="matrix" values="0 0 0 0 0.560784 0 0 0 0 0.321569 0 0 0 0 1 0 0 0 0.25 0" />
			<feBlend mode="normal" in2="BackgroundImageFix" result="effect1_dropShadow_890_405" />
			<feBlend mode="normal" in="SourceGraphic" in2="effect1_dropShadow_890_405" result="shape" />
		</filter>
	</defs>
</svg>
