<svg width="216" height="129" viewBox="0 0 216 129" fill="none" xmlns="http://www.w3.org/2000/svg">
	<g filter="url(#filter0_d_890_403)">
		<rect x="32" y="21" width="152" height="65" rx="16" fill="white" shape-rendering="crispEdges" />
		<path d="M83.38 61.5L82.3 58.3H76.46L75.38 61.5H72.34L77.46 47.42H81.3L86.42 61.5H83.38ZM81.56 56.06L79.94 51.24C79.7533 50.64 79.6467 49.9733 79.62 49.24C79.62 49.0533 79.54 48.96 79.38 48.96C79.22 48.96 79.14 49.0533 79.14 49.24C79.1133 49.9733 79.0067 50.64 78.82 51.24L77.2 56.06H81.56ZM89.9495 51.34C89.9495 51.7 89.8562 52.0667 89.6695 52.44C89.6562 52.48 89.6295 52.54 89.5895 52.62C89.5629 52.7 89.5495 52.7667 89.5495 52.82C89.5495 52.8867 89.5829 52.94 89.6495 52.98L89.7295 53C89.8229 53 89.8895 52.96 89.9295 52.88C89.9695 52.8 89.9962 52.7533 90.0095 52.74C90.3562 52.14 90.8029 51.6667 91.3495 51.32C91.9095 50.96 92.5762 50.78 93.3495 50.78C94.2429 50.78 95.0362 51.02 95.7295 51.5C96.4362 51.98 96.9829 52.6333 97.3695 53.46C97.7562 54.2867 97.9495 55.2067 97.9495 56.22C97.9495 57.2333 97.7562 58.1533 97.3695 58.98C96.9829 59.8067 96.4362 60.46 95.7295 60.94C95.0362 61.42 94.2429 61.66 93.3495 61.66C92.5895 61.66 91.9229 61.4867 91.3495 61.14C90.7895 60.78 90.3429 60.2933 90.0095 59.68C90.0095 59.6667 89.9829 59.62 89.9295 59.54C89.8895 59.46 89.8162 59.44 89.7095 59.48C89.6162 59.52 89.5695 59.58 89.5695 59.66C89.5695 59.7533 89.6029 59.8533 89.6695 59.96C89.8562 60.3333 89.9495 60.6933 89.9495 61.04V65.34H87.3895V50.94H89.9495V51.34ZM92.7495 59.34C93.6029 59.34 94.2562 59.0467 94.7095 58.46C95.1629 57.86 95.3895 57.1133 95.3895 56.22C95.3895 55.3267 95.1629 54.5867 94.7095 54C94.2562 53.4 93.6029 53.1 92.7495 53.1C92.2029 53.1 91.7162 53.24 91.2895 53.52C90.8629 53.8 90.5295 54.18 90.2895 54.66C90.0629 55.14 89.9495 55.66 89.9495 56.22C89.9495 56.78 90.0629 57.3 90.2895 57.78C90.5295 58.26 90.8629 58.64 91.2895 58.92C91.7162 59.2 92.2029 59.34 92.7495 59.34ZM101.961 51.34C101.961 51.7 101.868 52.0667 101.681 52.44C101.668 52.48 101.641 52.54 101.601 52.62C101.575 52.7 101.561 52.7667 101.561 52.82C101.561 52.8867 101.595 52.94 101.661 52.98L101.741 53C101.835 53 101.901 52.96 101.941 52.88C101.981 52.8 102.008 52.7533 102.021 52.74C102.368 52.14 102.815 51.6667 103.361 51.32C103.921 50.96 104.588 50.78 105.361 50.78C106.255 50.78 107.048 51.02 107.741 51.5C108.448 51.98 108.995 52.6333 109.381 53.46C109.768 54.2867 109.961 55.2067 109.961 56.22C109.961 57.2333 109.768 58.1533 109.381 58.98C108.995 59.8067 108.448 60.46 107.741 60.94C107.048 61.42 106.255 61.66 105.361 61.66C104.601 61.66 103.935 61.4867 103.361 61.14C102.801 60.78 102.355 60.2933 102.021 59.68C102.021 59.6667 101.995 59.62 101.941 59.54C101.901 59.46 101.828 59.44 101.721 59.48C101.628 59.52 101.581 59.58 101.581 59.66C101.581 59.7533 101.615 59.8533 101.681 59.96C101.868 60.3333 101.961 60.6933 101.961 61.04V65.34H99.4013V50.94H101.961V51.34ZM104.761 59.34C105.615 59.34 106.268 59.0467 106.721 58.46C107.175 57.86 107.401 57.1133 107.401 56.22C107.401 55.3267 107.175 54.5867 106.721 54C106.268 53.4 105.615 53.1 104.761 53.1C104.215 53.1 103.728 53.24 103.301 53.52C102.875 53.8 102.541 54.18 102.301 54.66C102.075 55.14 101.961 55.66 101.961 56.22C101.961 56.78 102.075 57.3 102.301 57.78C102.541 58.26 102.875 58.64 103.301 58.92C103.728 59.2 104.215 59.34 104.761 59.34ZM113.973 47.1V61.5H111.413V47.1H113.973ZM116.061 47.1H118.621V49.66H116.061V47.1ZM116.061 50.94H118.621V61.5H116.061V50.94ZM130.154 56.08C130.154 56.2933 130.134 56.5533 130.094 56.86H122.414C122.507 57.66 122.8 58.2867 123.294 58.74C123.787 59.1933 124.434 59.42 125.234 59.42C126.314 59.42 127.027 58.8867 127.374 57.82H129.974C129.734 58.98 129.214 59.9133 128.414 60.62C127.627 61.3133 126.56 61.66 125.214 61.66C124.107 61.66 123.154 61.4267 122.354 60.96C121.554 60.4933 120.947 59.8533 120.534 59.04C120.12 58.2133 119.914 57.2733 119.914 56.22C119.914 55.1267 120.127 54.1733 120.554 53.36C120.98 52.5333 121.587 51.9 122.374 51.46C123.174 51.0067 124.107 50.78 125.174 50.78C126.04 50.78 126.847 50.9667 127.594 51.34C128.354 51.7 128.967 52.28 129.434 53.08C129.914 53.8667 130.154 54.8667 130.154 56.08ZM127.594 55.1C127.54 54.4333 127.314 53.8933 126.914 53.48C126.514 53.0667 125.96 52.86 125.254 52.86C123.734 52.86 122.82 53.6067 122.514 55.1H127.594ZM141.821 61.5H139.261V61.04C139.261 60.6933 139.355 60.3333 139.541 59.96C139.608 59.8533 139.641 59.7533 139.641 59.66C139.641 59.58 139.595 59.52 139.501 59.48L139.441 59.46C139.361 59.46 139.301 59.4933 139.261 59.56C139.235 59.6267 139.215 59.6667 139.201 59.68C138.788 60.2933 138.315 60.78 137.781 61.14C137.248 61.4867 136.608 61.66 135.861 61.66C134.968 61.66 134.168 61.42 133.461 60.94C132.768 60.46 132.228 59.8067 131.841 58.98C131.455 58.1533 131.261 57.2333 131.261 56.22C131.261 55.2067 131.455 54.2867 131.841 53.46C132.228 52.6333 132.768 51.98 133.461 51.5C134.168 51.02 134.968 50.78 135.861 50.78C136.648 50.78 137.321 50.96 137.881 51.32C138.455 51.6667 138.895 52.14 139.201 52.74C139.308 52.9667 139.428 53.0467 139.561 52.98C139.628 52.94 139.661 52.88 139.661 52.8C139.661 52.72 139.621 52.6 139.541 52.44C139.355 52.0667 139.261 51.7 139.261 51.34V47.1H141.821V61.5ZM136.461 59.34C137.008 59.34 137.495 59.2 137.921 58.92C138.348 58.64 138.675 58.26 138.901 57.78C139.141 57.3 139.261 56.78 139.261 56.22C139.261 55.66 139.141 55.14 138.901 54.66C138.675 54.18 138.348 53.8 137.921 53.52C137.495 53.24 137.008 53.1 136.461 53.1C135.608 53.1 134.955 53.4 134.501 54C134.048 54.5867 133.821 55.3267 133.821 56.22C133.821 57.1133 134.048 57.86 134.501 58.46C134.955 59.0467 135.608 59.34 136.461 59.34Z" fill="#101828" />
	</g>
	<defs>
		<filter id="filter0_d_890_403" x="0" y="0" width="216" height="129" filterUnits="userSpaceOnUse" color-interpolation-filters="sRGB">
			<feFlood flood-opacity="0" result="BackgroundImageFix" />
			<feColorMatrix in="SourceAlpha" type="matrix" values="0 0 0 0 0 0 0 0 0 0 0 0 0 0 0 0 0 0 127 0" result="hardAlpha" />
			<feOffset dy="11" />
			<feGaussianBlur stdDeviation="16" />
			<feComposite in2="hardAlpha" operator="out" />
			<feColorMatrix type="matrix" values="0 0 0 0 0.560784 0 0 0 0 0.321569 0 0 0 0 1 0 0 0 0.25 0" />
			<feBlend mode="normal" in2="BackgroundImageFix" result="effect1_dropShadow_890_403" />
			<feBlend mode="normal" in="SourceGraphic" in2="effect1_dropShadow_890_403" result="shape" />
		</filter>
	</defs>
</svg>
