<svg width="26" height="42" viewBox="0 0 26 42" fill="none" xmlns="http://www.w3.org/2000/svg">
	<path d="M16.6708 41.9332H9.01352C9.13783 41.8164 9.27276 41.7126 9.41638 41.6234C9.84386 41.3364 10.3029 40.9131 10.7954 40.7541C11.1312 40.6508 11.604 40.7014 11.9645 40.7045C12.325 40.7076 12.8254 40.6777 13.2204 40.6921C13.7289 40.6973 14.2362 40.7456 14.7373 40.8367C15.1152 40.903 15.4749 41.0549 15.7912 41.2817C16 41.4159 16.5132 41.7205 16.6708 41.9332ZM13.9532 36.619C14.7208 36.6063 15.4787 36.4366 16.1842 36.1193C16.2827 36.0749 16.4797 35.9737 16.4797 35.8415C16.4846 35.6908 16.263 35.5917 16.1645 35.5184C16.0023 35.3979 15.8382 35.2785 15.672 35.1601C15.2914 34.8738 14.8846 34.6279 14.4575 34.426C13.1948 33.8654 11.6937 34.0553 10.5353 34.7946C10.0732 35.0712 9.63399 35.3879 9.22234 35.7414C9.25386 35.7135 9.47745 35.7682 9.51783 35.7806C9.61633 35.8106 9.70991 35.8715 9.81333 35.9055C10.2467 36.0522 10.6752 36.1864 11.1204 36.2907C12.0221 36.511 12.9446 36.6236 13.8705 36.6262L13.9532 36.619ZM19.3165 35.3852C18.5787 35.7414 17.839 36.0986 17.1268 36.5044C15.1766 37.6143 13.1564 37.7485 11.0672 37.031C9.79658 36.5942 8.53777 36.1131 7.25631 35.7125C6.35997 35.4316 5.44689 35.4244 4.58798 35.9138C3.89849 36.3031 3.54882 36.9163 3.55079 37.7268C3.55079 38.5053 3.95168 39.0629 4.58404 39.4118C5.07543 39.6693 5.62959 39.765 6.17381 39.6865C6.45708 39.6515 6.73668 39.5893 7.00907 39.5006C7.145 39.4562 7.27995 39.4067 7.41292 39.352C7.51142 39.3096 7.60105 39.2353 7.70841 39.1992C7.53606 39.1658 7.36155 39.1461 7.18637 39.1403C7.00612 39.1186 6.82488 39.0928 6.64561 39.0587C6.28042 38.9964 5.92513 38.8818 5.58971 38.718C5.40749 38.6348 5.24604 38.5087 5.1179 38.3494C4.86082 38.0015 4.96917 37.4821 5.44393 37.4873C5.70889 37.4873 5.95908 37.6019 6.2004 37.7021C6.47488 37.8156 6.74674 37.9357 7.01597 38.0624C7.7291 38.399 8.40283 38.814 9.11694 39.1455C9.80505 39.4739 10.5236 39.7272 11.2613 39.9012C11.6586 39.992 12.062 40.0511 12.4679 40.0778C14.2231 40.1893 15.7567 39.5058 17.1367 38.4331C18.0232 37.7413 18.8663 36.9814 19.7331 36.2566C20.4019 35.698 21.1298 35.1518 22.0498 35.2861C22.0429 35.3263 22.0557 35.2458 22.0498 35.2861C21.8026 35.2045 21.5573 35.0579 21.3071 35.0197C20.6117 34.9144 19.9459 35.0816 19.3165 35.3852Z" fill="url(#paint0_linear_545_588)" />
	<path d="M24.5134 17.6198C24.032 16.949 23.4379 16.3758 22.7601 15.9286C18.9709 13.4641 14.3089 15.6571 10.2508 14.351C9.60759 14.1445 8.97031 13.8348 8.52312 13.3123C8.28599 13.0229 8.10656 12.6865 7.99542 12.3232C7.88427 11.9598 7.84366 11.5769 7.87599 11.1968C7.94624 10.4312 8.24547 9.70851 8.73096 9.13184C9.42045 8.2945 10.4635 7.75348 11.5155 7.81956C12.5675 7.88564 13.584 8.61147 13.9287 9.65737C14.0847 10.0957 14.0802 10.5791 13.9159 11.0141C13.7396 11.4384 13.3417 11.7729 12.9004 11.7894C12.2799 11.8122 11.7913 11.2567 11.4338 10.7239C11.153 11.7946 11.749 12.9768 12.6601 13.5416C13.5712 14.1063 14.7147 14.1321 15.7381 13.8513C17.5574 13.3475 19.1226 11.8493 19.6663 9.96092C20.0347 8.68478 19.9421 7.29506 19.5678 6.02305C19.081 4.39177 18.151 2.9447 16.8916 1.85906C13.9494 -0.660186 10.0242 -0.486729 6.89691 1.58339C4.77427 2.98756 3.08108 5.19707 2.51077 7.75348C1.94046 10.3099 2.59942 13.2122 4.41475 15.0283C5.91094 16.5244 8.02571 17.1862 10.0912 17.2853C11.4544 17.3504 12.8492 17.1965 14.1612 17.5951C16.5025 18.3034 18.2568 21.1334 16.6502 23.4637C16.1784 24.1492 15.421 24.6324 14.6162 24.6675C13.7376 24.7068 12.9122 24.2339 12.2139 23.6743C10.4232 22.2381 9.04911 20.1009 6.90479 19.374C4.43543 18.5346 1.43418 19.8975 0.390095 22.3992C-0.355539 24.1813 -0.0423137 26.5116 1.41645 27.7144C2.46842 28.5837 3.87891 28.7469 5.19387 29.004C7.38559 29.4275 9.50835 30.177 11.4978 31.23C12.1518 31.5769 12.8896 32.1923 12.7664 32.916C12.9437 32.2268 12.9398 31.5002 12.7551 30.8131C12.5705 30.126 12.2119 29.5041 11.7174 29.0133C11.0841 28.3834 10.3069 27.9415 9.55046 27.4903C8.79399 27.0392 8.03063 26.5611 7.45244 25.8714C7.16778 25.5338 6.92154 25.1043 6.98359 24.6583C7.08209 23.919 7.96858 23.41 8.62359 23.4059C9.51008 23.3997 10.3188 23.9613 10.9718 24.5963C12.4985 26.0779 13.5879 28.2544 15.4525 29.3127C16.379 29.8348 17.4031 30.1388 18.4532 30.2036C19.5033 30.2683 20.5543 30.0922 21.5328 29.6875C25.9997 27.7815 27.3708 21.5546 24.5134 17.6198Z" fill="url(#paint1_linear_545_588)" />
	<defs>
		<linearGradient id="paint0_linear_545_588" x1="21.334" y1="34.1985" x2="19.7161" y2="43.4161" gradientUnits="userSpaceOnUse">
			<stop stop-color="#8F52FF" />
			<stop offset="1" stop-color="#1F9CD6" />
		</linearGradient>
		<linearGradient id="paint1_linear_545_588" x1="25" y1="0.411401" x2="8.57191" y2="31.7217" gradientUnits="userSpaceOnUse">
			<stop stop-color="#8F52FF" />
			<stop offset="1" stop-color="#1F9CD6" />
		</linearGradient>
	</defs>
</svg>
