<svg width="20" height="20" viewBox="0 0 20 20" fill="none" xmlns="http://www.w3.org/2000/svg">
<path d="M9.7496 2.21368C12.339 2.21368 12.6456 2.22318 13.6685 2.26887C14.2836 2.27624 14.8928 2.38686 15.4696 2.59593C15.888 2.75395 16.2679 2.99603 16.5849 3.30658C16.9019 3.61713 17.1491 3.98926 17.3104 4.39903C17.5238 4.96408 17.6368 5.56079 17.6443 6.16323C17.6905 7.16521 17.7006 7.46557 17.7006 10.002C17.7006 12.5383 17.6909 12.8387 17.6443 13.8407C17.6368 14.4431 17.5238 15.0398 17.3104 15.6049C17.1491 16.0146 16.9019 16.3868 16.5849 16.6973C16.2679 17.0079 15.888 17.25 15.4696 17.408C14.8928 17.617 14.2836 17.7277 13.6685 17.735C12.6461 17.7803 12.3394 17.7902 9.7496 17.7902C7.15975 17.7902 6.8531 17.7807 5.83065 17.735C5.21562 17.7277 4.60643 17.617 4.02958 17.408C3.61125 17.25 3.23133 17.0079 2.9143 16.6973C2.59726 16.3868 2.35012 16.0146 2.18879 15.6049C1.97536 15.0398 1.86242 14.4431 1.8549 13.8407C1.80871 12.8387 1.79855 12.5383 1.79855 10.002C1.79855 7.46557 1.80825 7.16521 1.8549 6.16323C1.86242 5.56079 1.97536 4.96408 2.18879 4.39903C2.35012 3.98926 2.59726 3.61713 2.9143 3.30658C3.23133 2.99603 3.61125 2.75395 4.02958 2.59593C4.60643 2.38686 5.21562 2.27624 5.83065 2.26887C6.85357 2.22363 7.16021 2.21368 9.7496 2.21368ZM9.7496 0.501953C7.11726 0.501953 6.78568 0.51281 5.75122 0.55895C4.9463 0.574633 4.14992 0.723917 3.39597 1.00045C2.7492 1.23915 2.16338 1.6132 1.67941 2.09652C1.18554 2.57076 0.803343 3.14491 0.559509 3.77885C0.277193 4.51737 0.124789 5.29744 0.108779 6.08588C0.0625972 7.09826 0.0515137 7.42305 0.0515137 10.0015C0.0515137 12.58 0.0625972 12.9047 0.109702 13.918C0.125712 14.7065 0.278117 15.4865 0.560432 16.2251C0.803997 16.8589 1.18588 17.4331 1.67941 17.9074C2.16365 18.3908 2.74979 18.7649 3.39689 19.0035C4.15085 19.28 4.94722 19.4293 5.75214 19.445C6.7866 19.4902 7.1168 19.502 9.75052 19.502C12.3842 19.502 12.7144 19.4911 13.7489 19.445C14.5538 19.4293 15.3502 19.28 16.1042 19.0035C16.7482 18.7589 17.333 18.3854 17.8213 17.9069C18.3095 17.4283 18.6905 16.8552 18.9397 16.2242C19.222 15.4856 19.3744 14.7056 19.3904 13.9171C19.4366 12.9047 19.4477 12.58 19.4477 10.0015C19.4477 7.42305 19.4366 7.09826 19.3895 6.08497C19.3735 5.29653 19.2211 4.51646 18.9388 3.77794C18.6952 3.14408 18.3133 2.56995 17.8198 2.09562C17.3355 1.61219 16.7494 1.23813 16.1023 0.999548C15.3484 0.723012 14.552 0.573728 13.7471 0.558046C12.7135 0.51281 12.3819 0.501953 9.7496 0.501953Z" fill="#2F2F2F"/>
<path d="M9.74851 5.12305C8.76352 5.12305 7.80065 5.40915 6.98166 5.94518C6.16267 6.48121 5.52435 7.24309 5.14741 8.13447C4.77047 9.02585 4.67184 10.0067 4.86401 10.953C5.05617 11.8993 5.53049 12.7685 6.22698 13.4507C6.92347 14.133 7.81086 14.5976 8.77692 14.7858C9.74299 14.974 10.7443 14.8774 11.6543 14.5082C12.5644 14.139 13.3422 13.5137 13.8894 12.7115C14.4366 11.9093 14.7287 10.9661 14.7287 10.0013C14.7287 8.7075 14.204 7.4667 13.27 6.55185C12.3361 5.637 11.0693 5.12305 9.74851 5.12305ZM9.74851 13.1678C9.10914 13.1678 8.48413 12.9821 7.95252 12.6342C7.42091 12.2862 7.00656 11.7917 6.76189 11.2131C6.51721 10.6345 6.4532 9.99778 6.57793 9.38353C6.70266 8.76929 7.01055 8.20507 7.46265 7.76223C7.91475 7.31938 8.49076 7.0178 9.11784 6.89562C9.74492 6.77344 10.3949 6.83615 10.9856 7.07581C11.5763 7.31548 12.0812 7.72134 12.4364 8.24207C12.7916 8.7628 12.9812 9.37501 12.9812 10.0013C12.9812 10.8411 12.6406 11.6465 12.0344 12.2404C11.4281 12.8342 10.6059 13.1678 9.74851 13.1678Z" fill="#2F2F2F"/>
<path d="M14.9262 6.07091C15.569 6.07091 16.09 5.56054 16.09 4.93096C16.09 4.30139 15.569 3.79102 14.9262 3.79102C14.2835 3.79102 13.7625 4.30139 13.7625 4.93096C13.7625 5.56054 14.2835 6.07091 14.9262 6.07091Z" fill="#2F2F2F"/>
</svg>
