<svg width="56" height="90" viewBox="0 0 56 90" fill="none" xmlns="http://www.w3.org/2000/svg">
	<path d="M35.4871 89.2614H19.1876C19.4522 89.0128 19.7395 88.792 20.0452 88.6021C20.9551 87.9911 21.9322 87.09 22.9805 86.7516C23.6955 86.5318 24.7019 86.6395 25.4692 86.6461C26.2366 86.6527 27.3017 86.5889 28.1425 86.6197C29.2249 86.6306 30.3047 86.7335 31.3713 86.9274C32.1759 87.0686 32.9414 87.3919 33.6147 87.8746C34.0592 88.1603 35.1516 88.8087 35.4871 89.2614ZM29.7024 77.9496C31.3363 77.9226 32.9495 77.5612 34.4513 76.8859C34.661 76.7914 35.0803 76.576 35.0803 76.2947C35.0908 75.9738 34.619 75.7628 34.4094 75.6068C34.0641 75.3504 33.7147 75.0962 33.361 74.8442C32.5509 74.2347 31.6849 73.7113 30.7759 73.2816C28.088 72.0882 24.8927 72.4926 22.427 74.0662C21.4433 74.6549 20.5084 75.329 19.6321 76.0815C19.6992 76.0222 20.1752 76.1386 20.2611 76.165C20.4708 76.2287 20.67 76.3584 20.8901 76.4309C21.8127 76.743 22.7247 77.0287 23.6724 77.2507C25.5917 77.7198 27.5555 77.9594 29.5263 77.965L29.7024 77.9496ZM41.1187 75.3233C39.5483 76.0815 37.9737 76.8419 36.4578 77.7056C32.3064 80.0682 28.0062 80.3539 23.5592 78.8265C20.8545 77.8968 18.175 76.8727 15.4472 76.02C13.5393 75.4222 11.5957 75.4068 9.76737 76.4485C8.29971 77.2771 7.55539 78.5825 7.55959 80.3078C7.55959 81.9649 8.41293 83.1517 9.75898 83.8945C10.805 84.4425 11.9846 84.6463 13.143 84.4791C13.746 84.4047 14.3411 84.2722 14.9209 84.0835C15.2103 83.989 15.4975 83.8835 15.7806 83.767C15.9902 83.6769 16.181 83.5187 16.4096 83.4418C16.0427 83.3708 15.6712 83.3289 15.2983 83.3165C14.9147 83.2703 14.5289 83.2154 14.1473 83.1429C13.3699 83.0102 12.6136 82.7662 11.8997 82.4176C11.5118 82.2405 11.1681 81.972 10.8954 81.633C10.3481 80.8924 10.5788 79.7869 11.5894 79.7979C12.1534 79.7979 12.6859 80.0418 13.1996 80.255C13.7839 80.4968 14.3625 80.7524 14.9356 81.022C16.4536 81.7385 17.8877 82.622 19.4078 83.3275C20.8725 84.0267 22.4021 84.5658 23.9722 84.9362C24.818 85.1295 25.6766 85.2551 26.5406 85.3121C30.2769 85.5494 33.5414 84.0945 36.4788 81.811C38.3658 80.3385 40.1605 78.721 42.0056 77.1782C43.4292 75.9892 44.9786 74.8266 46.9369 75.1123C46.9222 75.198 46.9495 75.0266 46.9369 75.1123C46.4106 74.9387 45.8886 74.6266 45.356 74.5453C43.8758 74.3211 42.4584 74.6771 41.1187 75.3233Z" fill="white" />
	<path d="M35.4871 89.2614H19.1876C19.4522 89.0128 19.7395 88.792 20.0452 88.6021C20.9551 87.9911 21.9322 87.09 22.9805 86.7516C23.6955 86.5318 24.7019 86.6395 25.4692 86.6461C26.2366 86.6527 27.3017 86.5889 28.1425 86.6197C29.2249 86.6306 30.3047 86.7335 31.3713 86.9274C32.1759 87.0686 32.9414 87.3919 33.6147 87.8746C34.0592 88.1603 35.1516 88.8087 35.4871 89.2614ZM29.7024 77.9496C31.3363 77.9226 32.9495 77.5612 34.4513 76.8859C34.661 76.7914 35.0803 76.576 35.0803 76.2947C35.0908 75.9738 34.619 75.7628 34.4094 75.6068C34.0641 75.3504 33.7147 75.0962 33.361 74.8442C32.5509 74.2347 31.6849 73.7113 30.7759 73.2816C28.088 72.0882 24.8927 72.4926 22.427 74.0662C21.4433 74.6549 20.5084 75.329 19.6321 76.0815C19.6992 76.0222 20.1752 76.1386 20.2611 76.165C20.4708 76.2287 20.67 76.3584 20.8901 76.4309C21.8127 76.743 22.7247 77.0287 23.6724 77.2507C25.5917 77.7198 27.5555 77.9594 29.5263 77.965L29.7024 77.9496ZM41.1187 75.3233C39.5483 76.0815 37.9737 76.8419 36.4578 77.7056C32.3064 80.0682 28.0062 80.3539 23.5592 78.8265C20.8545 77.8968 18.175 76.8727 15.4472 76.02C13.5393 75.4222 11.5957 75.4068 9.76737 76.4485C8.29971 77.2771 7.55539 78.5825 7.55959 80.3078C7.55959 81.9649 8.41293 83.1517 9.75898 83.8945C10.805 84.4425 11.9846 84.6463 13.143 84.4791C13.746 84.4047 14.3411 84.2722 14.9209 84.0835C15.2103 83.989 15.4975 83.8835 15.7806 83.767C15.9902 83.6769 16.181 83.5187 16.4096 83.4418C16.0427 83.3708 15.6712 83.3289 15.2983 83.3165C14.9147 83.2703 14.5289 83.2154 14.1473 83.1429C13.3699 83.0102 12.6136 82.7662 11.8997 82.4176C11.5118 82.2405 11.1681 81.972 10.8954 81.633C10.3481 80.8924 10.5788 79.7869 11.5894 79.7979C12.1534 79.7979 12.6859 80.0418 13.1996 80.255C13.7839 80.4968 14.3625 80.7524 14.9356 81.022C16.4536 81.7385 17.8877 82.622 19.4078 83.3275C20.8725 84.0267 22.4021 84.5658 23.9722 84.9362C24.818 85.1295 25.6766 85.2551 26.5406 85.3121C30.2769 85.5494 33.5414 84.0945 36.4788 81.811C38.3658 80.3385 40.1605 78.721 42.0056 77.1782C43.4292 75.9892 44.9786 74.8266 46.9369 75.1123C46.9222 75.198 46.9495 75.0266 46.9369 75.1123C46.4106 74.9387 45.8886 74.6266 45.356 74.5453C43.8758 74.3211 42.4584 74.6771 41.1187 75.3233Z" fill="url(#paint0_linear_545_581)" />
	<path d="M52.1796 37.5059C51.1549 36.0779 49.8902 34.8579 48.4475 33.906C40.3817 28.66 30.4582 33.328 21.82 30.5478C20.4509 30.1083 19.0943 29.4489 18.1425 28.3369C17.6377 27.7207 17.2558 27.0048 17.0192 26.2313C16.7826 25.4579 16.6962 24.6427 16.765 23.8337C16.9145 22.2041 17.5514 20.6657 18.5849 19.4382C20.0525 17.6558 22.2729 16.5042 24.5121 16.6448C26.7513 16.7855 28.9151 18.3305 29.6489 20.5568C29.981 21.4898 29.9713 22.5188 29.6217 23.4447C29.2464 24.348 28.3993 25.06 27.46 25.0952C26.1391 25.1436 25.0992 23.9612 24.3381 22.8271C23.7405 25.1062 25.009 27.6226 26.9484 28.8248C28.8878 30.027 31.3221 30.0819 33.5005 29.4841C37.373 28.4116 40.7046 25.2227 41.8619 21.203C42.6461 18.4866 42.449 15.5284 41.6523 12.8208C40.6162 9.3484 38.6365 6.26814 35.9557 3.95723C29.6929 -1.40528 21.3378 -1.03606 14.6809 3.37043C10.1626 6.35937 6.55843 11.0626 5.34447 16.5042C4.1305 21.9458 5.53316 28.1237 9.3973 31.9895C12.5821 35.1741 17.0836 36.5828 21.4803 36.7938C24.3821 36.9323 27.351 36.6048 30.1437 37.4532C35.1275 38.9608 38.8616 44.9849 35.442 49.9452C34.4377 51.4045 32.8254 52.433 31.1124 52.5078C29.2422 52.5913 27.4852 51.5847 25.9986 50.3935C22.1869 47.3364 19.2621 42.7871 14.6977 41.2399C9.44133 39.4531 3.05282 42.3541 0.830363 47.6793C-0.756807 51.4726 -0.0900697 56.4329 3.01508 58.9933C5.25431 60.8438 8.25672 61.1911 11.0558 61.7383C15.7211 62.6398 20.2396 64.2354 24.4744 66.4767C25.8665 67.2151 27.4369 68.525 27.1749 70.0656C27.5522 68.5985 27.5439 67.0517 27.1508 65.5892C26.7577 64.1267 25.9945 62.8029 24.9419 61.7581C23.5938 60.4175 21.9395 59.4768 20.3293 58.5164C18.719 57.556 17.0941 56.5384 15.8634 55.0703C15.2575 54.3517 14.7333 53.4374 14.8654 52.488C15.0751 50.9144 16.962 49.8309 18.3563 49.8221C20.2433 49.8089 21.9647 51.0045 23.3548 52.3561C26.6046 55.5099 28.9235 60.1427 32.8924 62.3954C34.8647 63.5069 37.0444 64.154 39.2798 64.2918C41.5151 64.4296 43.7522 64.0547 45.8351 63.1932C55.3435 59.1362 58.262 45.8815 52.1796 37.5059Z" fill="white" />
	<path d="M52.1796 37.5059C51.1549 36.0779 49.8902 34.8579 48.4475 33.906C40.3817 28.66 30.4582 33.328 21.82 30.5478C20.4509 30.1083 19.0943 29.4489 18.1425 28.3369C17.6377 27.7207 17.2558 27.0048 17.0192 26.2313C16.7826 25.4579 16.6962 24.6427 16.765 23.8337C16.9145 22.2041 17.5514 20.6657 18.5849 19.4382C20.0525 17.6558 22.2729 16.5042 24.5121 16.6448C26.7513 16.7855 28.9151 18.3305 29.6489 20.5568C29.981 21.4898 29.9713 22.5188 29.6217 23.4447C29.2464 24.348 28.3993 25.06 27.46 25.0952C26.1391 25.1436 25.0992 23.9612 24.3381 22.8271C23.7405 25.1062 25.009 27.6226 26.9484 28.8248C28.8878 30.027 31.3221 30.0819 33.5005 29.4841C37.373 28.4116 40.7046 25.2227 41.8619 21.203C42.6461 18.4866 42.449 15.5284 41.6523 12.8208C40.6162 9.3484 38.6365 6.26814 35.9557 3.95723C29.6929 -1.40528 21.3378 -1.03606 14.6809 3.37043C10.1626 6.35937 6.55843 11.0626 5.34447 16.5042C4.1305 21.9458 5.53316 28.1237 9.3973 31.9895C12.5821 35.1741 17.0836 36.5828 21.4803 36.7938C24.3821 36.9323 27.351 36.6048 30.1437 37.4532C35.1275 38.9608 38.8616 44.9849 35.442 49.9452C34.4377 51.4045 32.8254 52.433 31.1124 52.5078C29.2422 52.5913 27.4852 51.5847 25.9986 50.3935C22.1869 47.3364 19.2621 42.7871 14.6977 41.2399C9.44133 39.4531 3.05282 42.3541 0.830363 47.6793C-0.756807 51.4726 -0.0900697 56.4329 3.01508 58.9933C5.25431 60.8438 8.25672 61.1911 11.0558 61.7383C15.7211 62.6398 20.2396 64.2354 24.4744 66.4767C25.8665 67.2151 27.4369 68.525 27.1749 70.0656C27.5522 68.5985 27.5439 67.0517 27.1508 65.5892C26.7577 64.1267 25.9945 62.8029 24.9419 61.7581C23.5938 60.4175 21.9395 59.4768 20.3293 58.5164C18.719 57.556 17.0941 56.5384 15.8634 55.0703C15.2575 54.3517 14.7333 53.4374 14.8654 52.488C15.0751 50.9144 16.962 49.8309 18.3563 49.8221C20.2433 49.8089 21.9647 51.0045 23.3548 52.3561C26.6046 55.5099 28.9235 60.1427 32.8924 62.3954C34.8647 63.5069 37.0444 64.154 39.2798 64.2918C41.5151 64.4296 43.7522 64.0547 45.8351 63.1932C55.3435 59.1362 58.262 45.8815 52.1796 37.5059Z" fill="url(#paint1_linear_545_581)" />
	<defs>
		<linearGradient id="paint0_linear_545_581" x1="45.4133" y1="72.7972" x2="41.9694" y2="92.418" gradientUnits="userSpaceOnUse">
			<stop stop-color="#8F52FF" />
			<stop offset="1" stop-color="#1F9CD6" />
		</linearGradient>
		<linearGradient id="paint1_linear_545_581" x1="53.2154" y1="0.875716" x2="18.2463" y2="67.5233" gradientUnits="userSpaceOnUse">
			<stop stop-color="#8F52FF" />
			<stop offset="1" stop-color="#1F9CD6" />
		</linearGradient>
	</defs>
</svg>
