<svg width="135" height="42" viewBox="0 0 135 42" fill="none" xmlns="http://www.w3.org/2000/svg">
<path d="M16.6708 41.9332H9.01352C9.13783 41.8164 9.27276 41.7126 9.41638 41.6234C9.84386 41.3364 10.3029 40.9131 10.7954 40.7541C11.1312 40.6508 11.604 40.7014 11.9645 40.7045C12.325 40.7076 12.8254 40.6777 13.2204 40.6921C13.7289 40.6973 14.2362 40.7456 14.7373 40.8367C15.1152 40.903 15.4749 41.0549 15.7912 41.2817C16 41.4159 16.5132 41.7205 16.6708 41.9332ZM13.9532 36.619C14.7208 36.6063 15.4787 36.4366 16.1842 36.1193C16.2827 36.0749 16.4797 35.9737 16.4797 35.8415C16.4846 35.6908 16.263 35.5917 16.1645 35.5184C16.0023 35.3979 15.8382 35.2785 15.672 35.1601C15.2914 34.8738 14.8846 34.6279 14.4575 34.426C13.1948 33.8654 11.6937 34.0553 10.5353 34.7946C10.0732 35.0712 9.63399 35.3879 9.22234 35.7414C9.25386 35.7135 9.47745 35.7682 9.51783 35.7806C9.61633 35.8106 9.70991 35.8715 9.81333 35.9055C10.2467 36.0522 10.6752 36.1864 11.1204 36.2907C12.0221 36.511 12.9446 36.6236 13.8705 36.6262L13.9532 36.619ZM19.3165 35.3852C18.5787 35.7414 17.839 36.0986 17.1268 36.5044C15.1766 37.6143 13.1564 37.7485 11.0672 37.031C9.79658 36.5942 8.53777 36.1131 7.25631 35.7125C6.35997 35.4316 5.44689 35.4244 4.58798 35.9138C3.89849 36.3031 3.54882 36.9163 3.55079 37.7268C3.55079 38.5053 3.95168 39.0629 4.58404 39.4118C5.07543 39.6693 5.62959 39.765 6.17381 39.6865C6.45708 39.6515 6.73668 39.5893 7.00907 39.5006C7.145 39.4562 7.27995 39.4067 7.41292 39.352C7.51142 39.3096 7.60105 39.2353 7.70841 39.1992C7.53606 39.1658 7.36155 39.1461 7.18637 39.1403C7.00612 39.1186 6.82488 39.0928 6.64561 39.0587C6.28042 38.9964 5.92513 38.8818 5.58971 38.718C5.40749 38.6348 5.24604 38.5087 5.1179 38.3494C4.86082 38.0015 4.96917 37.4821 5.44393 37.4873C5.70889 37.4873 5.95908 37.6019 6.2004 37.7021C6.47488 37.8156 6.74674 37.9357 7.01597 38.0624C7.7291 38.399 8.40283 38.814 9.11694 39.1455C9.80505 39.4739 10.5236 39.7272 11.2613 39.9012C11.6586 39.992 12.062 40.0511 12.4679 40.0778C14.2231 40.1893 15.7567 39.5058 17.1367 38.4331C18.0232 37.7413 18.8663 36.9814 19.7331 36.2566C20.4019 35.698 21.1298 35.1518 22.0498 35.2861C22.0429 35.3263 22.0557 35.2458 22.0498 35.2861C21.8026 35.2045 21.5573 35.0579 21.3071 35.0197C20.6117 34.9144 19.9459 35.0816 19.3165 35.3852Z" fill="url(#paint0_linear_545_587)"/>
<path d="M24.5134 17.6198C24.032 16.949 23.4379 16.3758 22.7601 15.9286C18.9709 13.4641 14.3089 15.6571 10.2508 14.351C9.60759 14.1445 8.97031 13.8348 8.52312 13.3123C8.28599 13.0229 8.10656 12.6865 7.99542 12.3232C7.88427 11.9598 7.84366 11.5769 7.87599 11.1968C7.94624 10.4312 8.24547 9.70851 8.73096 9.13184C9.42045 8.2945 10.4635 7.75348 11.5155 7.81956C12.5675 7.88564 13.584 8.61147 13.9287 9.65737C14.0847 10.0957 14.0802 10.5791 13.9159 11.0141C13.7396 11.4384 13.3417 11.7729 12.9004 11.7894C12.2799 11.8122 11.7913 11.2567 11.4338 10.7239C11.153 11.7946 11.749 12.9768 12.6601 13.5416C13.5712 14.1063 14.7147 14.1321 15.7381 13.8513C17.5574 13.3475 19.1226 11.8493 19.6663 9.96092C20.0347 8.68478 19.9421 7.29506 19.5678 6.02305C19.081 4.39177 18.151 2.9447 16.8916 1.85906C13.9494 -0.660186 10.0242 -0.486729 6.89691 1.58339C4.77427 2.98756 3.08108 5.19707 2.51077 7.75348C1.94046 10.3099 2.59942 13.2122 4.41475 15.0283C5.91094 16.5244 8.02571 17.1862 10.0912 17.2853C11.4544 17.3504 12.8492 17.1965 14.1612 17.5951C16.5025 18.3034 18.2568 21.1334 16.6502 23.4637C16.1784 24.1492 15.421 24.6324 14.6162 24.6675C13.7376 24.7068 12.9122 24.2339 12.2139 23.6743C10.4232 22.2381 9.04911 20.1009 6.90479 19.374C4.43543 18.5346 1.43418 19.8975 0.390095 22.3992C-0.355539 24.1813 -0.0423137 26.5116 1.41645 27.7144C2.46842 28.5837 3.87891 28.7469 5.19387 29.004C7.38559 29.4275 9.50835 30.177 11.4978 31.23C12.1518 31.5769 12.8896 32.1923 12.7664 32.916C12.9437 32.2268 12.9398 31.5002 12.7551 30.8131C12.5705 30.126 12.2119 29.5041 11.7174 29.0133C11.0841 28.3834 10.3069 27.9415 9.55046 27.4903C8.79399 27.0392 8.03063 26.5611 7.45244 25.8714C7.16778 25.5338 6.92154 25.1043 6.98359 24.6583C7.08209 23.919 7.96858 23.41 8.62359 23.4059C9.51008 23.3997 10.3188 23.9613 10.9718 24.5963C12.4985 26.0779 13.5879 28.2544 15.4525 29.3127C16.379 29.8348 17.4031 30.1388 18.4532 30.2036C19.5033 30.2683 20.5543 30.0922 21.5328 29.6875C25.9997 27.7815 27.3708 21.5546 24.5134 17.6198Z" fill="url(#paint1_linear_545_587)"/>
<path d="M42.4459 15.7679C43.767 15.9315 44.8631 16.1777 45.7342 16.5058C46.6197 16.8188 47.3093 17.3106 47.8029 17.9816C48.2965 18.6522 48.5433 19.5618 48.5433 20.7094C48.5433 21.5891 48.2965 22.4014 47.8029 23.1464C47.3238 23.8919 46.6125 24.488 45.6688 24.9352C44.7251 25.3677 43.5928 25.5839 42.2717 25.5839C40.907 25.5839 39.7528 25.3155 38.8092 24.7787C37.8656 24.2423 37.1614 23.5414 36.6968 22.6769C36.2323 21.8124 36 20.8735 36 19.8595H38.8745C38.9036 20.6947 39.1649 21.4397 39.6585 22.0955C40.1521 22.7514 41.0231 23.0795 42.2717 23.0795C43.0556 23.0795 43.6944 22.9676 44.188 22.7443C44.6961 22.5057 45.0518 22.2226 45.255 21.8945C45.4728 21.5516 45.5817 21.2163 45.5817 20.8881C45.5817 20.3067 45.3422 19.8373 44.8631 19.4797C44.384 19.107 43.5202 18.8385 42.2717 18.6745C40.8344 18.481 39.6948 18.1903 38.8528 17.8023C38.0252 17.4002 37.43 16.8933 37.0671 16.282C36.7041 15.656 36.5226 14.8807 36.5226 13.9569C36.5226 13.137 36.7549 12.3839 37.2195 11.6981C37.684 11.0124 38.3519 10.4761 39.2229 10.0881C40.1085 9.68601 41.1393 9.48444 42.3152 9.48444C43.5782 9.48444 44.6308 9.71589 45.4728 10.1778C46.3148 10.6397 46.9391 11.2509 47.3456 12.0111C47.7521 12.7718 47.9626 13.5988 47.9771 14.4932H45.1679C45.1679 13.8521 44.9357 13.2782 44.4711 12.7718C44.0065 12.2497 43.2734 11.9888 42.2717 11.9888C41.27 11.9888 40.5513 12.1828 40.1158 12.5702C39.6803 12.9577 39.4625 13.3755 39.4625 13.8227C39.4625 14.8958 40.457 15.5441 42.4459 15.7679ZM60.7387 19.3455C60.7387 19.584 60.717 19.8747 60.6734 20.2176H52.3112C52.4128 21.112 52.7322 21.8124 53.2693 22.3194C53.8065 22.8263 54.5106 23.0795 55.3816 23.0795C56.5576 23.0795 57.3343 22.4835 57.7118 21.2908H60.5427C60.2814 22.5878 59.7152 23.6311 58.8441 24.4211C57.9876 25.1965 56.8262 25.5839 55.3599 25.5839C54.1549 25.5839 53.1169 25.3231 52.2458 24.8015C51.3748 24.2793 50.7142 23.5642 50.2642 22.6546C49.8141 21.7304 49.5891 20.6795 49.5891 19.502C49.5891 18.2794 49.8214 17.2139 50.286 16.3043C50.7505 15.38 51.4111 14.672 52.2676 14.1802C53.1387 13.6733 54.1549 13.42 55.3163 13.42C56.26 13.42 57.1383 13.6287 57.9513 14.046C58.7788 14.4487 59.4466 15.0969 59.9548 15.9913C60.4774 16.871 60.7387 17.9887 60.7387 19.3455ZM57.9513 18.2495C57.8932 17.5046 57.6464 16.9009 57.2109 16.4385C56.7754 15.9766 56.1729 15.7457 55.4035 15.7457C53.7484 15.7457 52.754 16.5803 52.42 18.2495H57.9513ZM64.7226 16.1255C64.7807 16.1255 64.8315 16.1032 64.8751 16.0587C64.9186 15.9989 64.9477 15.9467 64.9622 15.9022C65.2235 15.2909 65.492 14.8138 65.7679 14.4709C66.0437 14.1281 66.443 13.8672 66.9656 13.6885C67.4882 13.5097 68.1995 13.42 69.0996 13.42V16.3266C68.9255 16.3119 68.6858 16.3043 68.381 16.3043C67.089 16.3043 66.1889 16.6173 65.6808 17.2437C65.1727 17.8545 64.9186 18.8684 64.9186 20.2845V25.4052H62.1312V13.5988H64.9186V14.2471C64.9186 14.7095 64.8098 15.1643 64.592 15.6115C64.5339 15.7305 64.5048 15.8272 64.5048 15.9022C64.5048 16.0212 64.5702 16.0956 64.7008 16.1255H64.7226ZM74.9661 22.2297C75.0677 22.5726 75.1185 23.0051 75.1185 23.5267C75.1185 23.7506 75.2058 23.862 75.3799 23.862C75.5541 23.862 75.6414 23.7506 75.6414 23.5267C75.6414 23.0051 75.6922 22.5726 75.7938 22.2297L78.3413 13.5988H81.3032L77.3835 25.4052H73.3764L69.4567 13.5988H72.4181L74.9661 22.2297ZM81.4881 19.2336C81.4881 18.1751 81.6987 17.2063 82.12 16.3266C82.5407 15.4322 83.1286 14.7242 83.8838 14.2025C84.6532 13.6809 85.5243 13.42 86.4969 13.42C88.0649 13.42 89.2773 14.1357 90.1335 15.5664C90.2351 15.7902 90.3515 15.8723 90.4822 15.8125C90.5548 15.7978 90.5908 15.7381 90.5908 15.6337C90.5908 15.5593 90.54 15.4175 90.4384 15.2088C90.279 14.8958 90.1991 14.5378 90.1991 14.1357V13.5988H92.9864V24.1527C92.9864 26.0159 92.4858 27.4325 91.484 28.4013C90.4823 29.3848 89.0884 29.8771 87.3029 29.8771C85.6042 29.8771 84.2902 29.4745 83.361 28.6697C82.4465 27.8797 81.9385 26.8809 81.8369 25.6731H84.5807C84.7405 26.9255 85.6333 27.5515 87.259 27.5515C89.2191 27.5515 90.1991 26.456 90.1991 24.2646C90.1991 23.8772 90.279 23.5267 90.4384 23.2137C90.54 23.0051 90.5908 22.8709 90.5908 22.8111C90.5908 22.7367 90.5548 22.6845 90.4822 22.6546L90.3949 22.6323C90.3081 22.6323 90.2425 22.6698 90.1991 22.7443C90.1552 22.8035 90.1335 22.841 90.1335 22.8557C89.3064 24.3168 88.094 25.0471 86.4969 25.0471C85.5243 25.0471 84.6532 24.7863 83.8838 24.2646C83.1286 23.743 82.5407 23.0421 82.12 22.1629C81.6987 21.2685 81.4881 20.292 81.4881 19.2336ZM87.1505 22.4536C87.7453 22.4536 88.2755 22.3118 88.7401 22.0287C89.2048 21.7304 89.5604 21.3353 89.807 20.8436C90.0684 20.3518 90.1991 19.815 90.1991 19.2336C90.1991 18.6522 90.0684 18.1158 89.807 17.6236C89.5604 17.1318 89.2048 16.7444 88.7401 16.4608C88.2755 16.163 87.7453 16.0136 87.1505 16.0136C86.2212 16.0136 85.51 16.3195 85.0162 16.9308C84.5225 17.5415 84.2759 18.3093 84.2759 19.2336C84.2759 20.1578 84.5225 20.9256 85.0162 21.5369C85.51 22.1477 86.2212 22.4536 87.1505 22.4536ZM105.547 19.3455C105.547 19.584 105.525 19.8747 105.481 20.2176H97.1192C97.2208 21.112 97.5399 21.8124 98.0771 22.3194C98.6142 22.8263 99.3185 23.0795 100.19 23.0795C101.365 23.0795 102.142 22.4835 102.52 21.2908H105.351C105.089 22.5878 104.523 23.6311 103.652 24.4211C102.795 25.1965 101.634 25.5839 100.168 25.5839C98.9629 25.5839 97.9246 25.3231 97.0536 24.8015C96.1825 24.2793 95.5221 23.5642 95.0723 22.6546C94.622 21.7304 94.397 20.6795 94.397 19.502C94.397 18.2794 94.6294 17.2139 95.094 16.3043C95.5586 15.38 96.219 14.672 97.0753 14.1802C97.9463 13.6733 98.9629 13.42 100.124 13.42C101.068 13.42 101.946 13.6287 102.759 14.046C103.586 14.4487 104.254 15.0969 104.763 15.9913C105.285 16.871 105.547 17.9887 105.547 19.3455ZM102.759 18.2495C102.701 17.5046 102.454 16.9009 102.019 16.4385C101.583 15.9766 100.981 15.7457 100.211 15.7457C98.5565 15.7457 97.5616 16.5803 97.2277 18.2495H102.759ZM113.603 13.42C114.88 13.42 115.889 13.845 116.63 14.6943C117.37 15.5441 117.74 16.7889 117.74 18.4288V25.4052H114.953V19.4123C114.953 18.1305 114.786 17.2437 114.452 16.7515C114.118 16.2597 113.573 16.0136 112.819 16.0136C112.282 16.0136 111.774 16.2075 111.294 16.595C110.83 16.9829 110.452 17.5268 110.162 18.2273C109.872 18.9282 109.726 19.7182 109.726 20.5974V25.4052H106.939V13.5988H109.726V14.3367C109.726 14.6796 109.698 14.9703 109.639 15.2088C109.581 15.4474 109.494 15.6935 109.378 15.9467C109.306 16.1255 109.269 16.245 109.269 16.3043C109.269 16.4385 109.327 16.5129 109.444 16.5281H109.509C109.61 16.5281 109.698 16.4385 109.77 16.2597C110.089 15.5294 110.583 14.8736 111.251 14.2922C111.919 13.7108 112.702 13.42 113.603 13.42ZM119.656 9.30566H122.444V12.1676H119.656V9.30566ZM119.656 13.5988H122.444V25.4052H119.656V13.5988ZM135 19.3455C135 19.584 134.978 19.8747 134.935 20.2176H126.573C126.674 21.112 126.994 21.8124 127.531 22.3194C128.068 22.8263 128.772 23.0795 129.643 23.0795C130.819 23.0795 131.596 22.4835 131.974 21.2908H134.804C134.543 22.5878 133.977 23.6311 133.105 24.4211C132.249 25.1965 131.088 25.5839 129.621 25.5839C128.416 25.5839 127.379 25.3231 126.508 24.8015C125.636 24.2793 124.976 23.5642 124.526 22.6546C124.076 21.7304 123.85 20.6795 123.85 19.502C123.85 18.2794 124.083 17.2139 124.547 16.3043C125.012 15.38 125.672 14.672 126.529 14.1802C127.4 13.6733 128.416 13.42 129.578 13.42C130.521 13.42 131.4 13.6287 132.213 14.046C133.04 14.4487 133.708 15.0969 134.216 15.9913C134.739 16.871 135 17.9887 135 19.3455ZM132.213 18.2495C132.155 17.5046 131.908 16.9009 131.472 16.4385C131.037 15.9766 130.435 15.7457 129.665 15.7457C128.01 15.7457 127.016 16.5803 126.682 18.2495H132.213Z" fill="black"/>
<defs>
<linearGradient id="paint0_linear_545_587" x1="21.334" y1="34.1985" x2="19.7161" y2="43.4161" gradientUnits="userSpaceOnUse">
<stop stop-color="#8F52FF"/>
<stop offset="1" stop-color="#1F9CD6"/>
</linearGradient>
<linearGradient id="paint1_linear_545_587" x1="25" y1="0.411401" x2="8.57191" y2="31.7217" gradientUnits="userSpaceOnUse">
<stop stop-color="#8F52FF"/>
<stop offset="1" stop-color="#1F9CD6"/>
</linearGradient>
</defs>
</svg>
