<svg width="82" height="82" viewBox="0 0 82 82" fill="none" xmlns="http://www.w3.org/2000/svg">
	<rect x="1" y="1" width="80" height="80" rx="40" fill="white" />
	<rect x="1" y="1" width="80" height="80" rx="40" stroke="#EDEDED" stroke-width="2" />
	<rect x="17" y="17" width="48" height="48" rx="24" fill="#8F52FF" />
	<path d="M44 31L44.5387 33.3916C44.9957 35.4201 46.5798 37.0043 48.6084 37.4613L51 38L48.6084 38.5387C46.5798 38.9957 44.9957 40.5798 44.5387 42.6084L44 45L43.4613 42.6084C43.0043 40.5798 41.4202 38.9957 39.3916 38.5387L37 38L39.3916 37.4613C41.4201 37.0043 43.0043 35.4202 43.4613 33.3916L44 31Z" stroke="white" stroke-width="1.5" stroke-linejoin="round" />
	<path d="M36 41L36.3848 42.7083C36.7112 44.1572 37.8427 45.2888 39.2917 45.6152L41 46L39.2917 46.3848C37.8427 46.7112 36.7112 47.8427 36.3848 49.2917L36 51L35.6152 49.2917C35.2888 47.8427 34.1573 46.7112 32.7083 46.3848L31 46L32.7083 45.6152C34.1572 45.2888 35.2888 44.1573 35.6152 42.7083L36 41Z" stroke="white" stroke-width="1.5" stroke-linejoin="round" />
</svg>
