<svg width="20" height="22" viewBox="0 0 20 22" fill="none" xmlns="http://www.w3.org/2000/svg">
	<path d="M18.9427 15.8354C18.2864 11.8866 16.2432 8.94613 14.467 7.219C13.9501 6.71642 13.6917 6.46513 13.1208 6.23257C12.5499 6 12.0592 6 11.0778 6H8.92222C7.94081 6 7.4501 6 6.87922 6.23257C6.30834 6.46513 6.04991 6.71642 5.53304 7.219C3.75682 8.94613 1.71361 11.8866 1.05727 15.8354C0.56893 18.7734 3.27927 21 6.30832 21H13.6917C16.7207 21 19.4311 18.7734 18.9427 15.8354Z" stroke="#141B34" stroke-width="1.5" stroke-linecap="round" />
	<path d="M10.663 10C10.663 9.58579 10.3273 9.25 9.91304 9.25C9.49883 9.25 9.16304 9.58579 9.16304 10L10.663 10ZM9.16304 17C9.16304 17.4142 9.49883 17.75 9.91304 17.75C10.3273 17.75 10.663 17.4142 10.663 17H9.16304ZM10.9857 11.9539C11.2363 12.2836 11.7068 12.3477 12.0366 12.0971C12.3664 11.8464 12.4305 11.3759 12.1798 11.0461L10.9857 11.9539ZM8.7472 15.1022C8.43854 14.826 7.9644 14.8523 7.68816 15.1609C7.41193 15.4696 7.43821 15.9437 7.74687 16.22L8.7472 15.1022ZM9.91304 12.6493C9.26574 12.6493 8.97105 12.5437 8.85381 12.4647C8.80003 12.4285 8.75 12.3874 8.75 12.1895H7.25C7.25 12.771 7.46084 13.3349 8.01576 13.7088C8.50721 14.0398 9.16904 14.1493 9.91304 14.1493V12.6493ZM8.75 12.1895C8.75 12.094 8.80082 11.946 9.00561 11.7949C9.21015 11.6439 9.52852 11.5279 9.91304 11.5279V10.0279C9.24102 10.0279 8.60287 10.2279 8.11503 10.5879C7.62743 10.9476 7.25 11.5054 7.25 12.1895H8.75ZM11.25 14.8109C11.25 15.0328 11.1711 15.1505 11.0026 15.2518C10.7885 15.3804 10.4212 15.4724 9.91304 15.4724V16.9724C10.5575 16.9724 11.2337 16.8628 11.7749 16.5376C12.3617 16.1852 12.75 15.5971 12.75 14.8109H11.25ZM9.91304 14.1493C10.5664 14.1493 10.9071 14.2499 11.0685 14.3552C11.1626 14.4165 11.25 14.5063 11.25 14.8109H12.75C12.75 14.1072 12.4896 13.4912 11.888 13.0988C11.3538 12.7504 10.651 12.6493 9.91304 12.6493V14.1493ZM10.663 10.7779L10.663 10L9.16304 10L9.16304 10.7779L10.663 10.7779ZM9.16304 16.2224V17H10.663V16.2224H9.16304ZM9.91304 11.5279C10.4479 11.5279 10.8287 11.7474 10.9857 11.9539L12.1798 11.0461C11.6817 10.3908 10.8126 10.0279 9.91304 10.0279V11.5279ZM9.91304 15.4724C9.37965 15.4724 8.96511 15.2972 8.7472 15.1022L7.74687 16.22C8.29089 16.7068 9.08531 16.9724 9.91304 16.9724V15.4724Z" fill="#141B34" />
	<path d="M5.25662 3.44287C5.05031 3.14258 4.75128 2.73499 5.36899 2.64205C6.00392 2.54651 6.66321 2.98114 7.30855 2.97221C7.89237 2.96413 8.1898 2.70519 8.50891 2.33548C8.84493 1.94617 9.36523 1 10 1C10.6348 1 11.1551 1.94617 11.4911 2.33548C11.8102 2.70519 12.1076 2.96413 12.6914 2.97221C13.3368 2.98114 13.9961 2.54651 14.631 2.64205C15.2487 2.73499 14.9497 3.14258 14.7434 3.44287L13.8105 4.80064C13.4115 5.38146 13.212 5.67187 12.7944 5.83594C12.3769 6 11.8373 6 10.7582 6H9.2418C8.16266 6 7.6231 6 7.20556 5.83594C6.78802 5.67187 6.5885 5.38146 6.18945 4.80064L5.25662 3.44287Z" stroke="#141B34" stroke-width="1.5" />
</svg>
