<svg width="22" height="20" viewBox="0 0 22 20" fill="none" xmlns="http://www.w3.org/2000/svg">
	<path d="M13.5 10.0001C13.5 11.3808 12.3807 12.5001 11 12.5001C9.61929 12.5001 8.5 11.3808 8.5 10.0001C8.5 8.61941 9.61929 7.50012 11 7.50012C12.3807 7.50012 13.5 8.61941 13.5 10.0001Z" stroke="white" stroke-width="1.5" />
	<path d="M18 9.14153C17.6749 9.09445 17.341 9.05857 17 9.03472M5 10.9653C4.65897 10.9415 4.32511 10.9056 4 10.8585" stroke="white" stroke-width="1.5" stroke-linecap="round" stroke-linejoin="round" />
	<path d="M11 17.5C9.66746 18.1224 7.91707 18.5 6 18.5C4.93408 18.5 3.91969 18.3833 3 18.1726C1.49957 17.8289 1 16.9264 1 15.386V4.61397C1 3.62914 2.04003 2.95273 3 3.1726C3.91969 3.38325 4.93408 3.5 6 3.5C7.91707 3.5 9.66746 3.12236 11 2.5C12.3325 1.87764 14.0829 1.5 16 1.5C17.0659 1.5 18.0803 1.61675 19 1.8274C20.5817 2.18968 21 3.12036 21 4.61397V15.386C21 16.3709 19.96 17.0473 19 16.8274C18.0803 16.6167 17.0659 16.5 16 16.5C14.0829 16.5 12.3325 16.8776 11 17.5Z" stroke="white" stroke-width="1.5" />
</svg>
